<svg aria-hidden="true" style="position: absolute; width: 0; height: 0; overflow: hidden;" version="1.1" xmlns="http://www.w3.org/2000/svg"
     xmlns:xlink="http://www.w3.org/1999/xlink">
    <defs>
        <symbol id="icon-tv" viewBox="0 0 16 32">
            <path d="M0 4c0 0 0-2 2-2h12c0 0 2 0 2 2v6c0 0 0 2-2 2h-4c0 0.667 0.083 1.167 0.25 1.5h0.75c0.133 0 0.26 0.053 0.354 0.146s0.146 0.221 0.146 0.354c0 0.133-0.053 0.26-0.146 0.354s-0.221 0.146-0.354 0.146h-6c-0.133 0-0.26-0.053-0.354-0.146s-0.146-0.221-0.146-0.354c0-0.133 0.053-0.26 0.146-0.354s0.221-0.146 0.354-0.146h0.75c0.167-0.333 0.25-0.833 0.25-1.5h-4c0 0-2 0-2-2v-6zM1.398 3.145c-0.11 0.077-0.197 0.181-0.254 0.302-0.084 0.176-0.133 0.368-0.144 0.563v5.99c0 0.325 0.078 0.502 0.145 0.602 0.070 0.104 0.171 0.189 0.302 0.254 0.169 0.081 0.351 0.129 0.538 0.143l0.025 0.001h11.99c0.325 0 0.502-0.078 0.602-0.145 0.11-0.077 0.197-0.181 0.254-0.302 0.081-0.169 0.129-0.351 0.143-0.538l0.001-0.025v-5.99c0-0.325-0.078-0.502-0.145-0.602-0.077-0.11-0.181-0.197-0.302-0.254-0.177-0.084-0.368-0.133-0.563-0.144h-11.99c-0.325 0-0.502 0.078-0.602 0.145z"></path>
            <path d="M2.966 23.938v-0.756h4.503v0.756h-1.815v5.063h-0.875v-5.063h-1.813zM8.932 23.182l1.619 4.739h0.065l1.619-4.739h0.949l-2.094 5.818h-1.014l-2.094-5.818h0.949z"></path>
        </symbol>

        <symbol id="icon-bathroom" viewBox="0 0 38 32">
            <path d="M15 14.75c0 0.148-0.044 0.293-0.126 0.417s-0.2 0.219-0.337 0.276-0.288 0.072-0.433 0.043c-0.146-0.029-0.279-0.1-0.384-0.205s-0.176-0.239-0.205-0.384c-0.029-0.145-0.014-0.296 0.043-0.433s0.153-0.254 0.276-0.337c0.123-0.082 0.268-0.126 0.417-0.126 0.199 0 0.39 0.079 0.53 0.22s0.22 0.331 0.22 0.53zM16.25 12c-0.148 0-0.293 0.044-0.417 0.126s-0.219 0.2-0.276 0.337-0.072 0.288-0.043 0.433c0.029 0.146 0.1 0.279 0.205 0.384s0.239 0.176 0.384 0.205c0.145 0.029 0.296 0.014 0.433-0.043s0.254-0.153 0.337-0.276c0.082-0.123 0.126-0.268 0.126-0.417 0-0.199-0.079-0.39-0.22-0.53s-0.331-0.22-0.53-0.22zM12.25 12c-0.148 0-0.293 0.044-0.417 0.126s-0.219 0.2-0.276 0.337c-0.057 0.137-0.072 0.288-0.043 0.433s0.1 0.279 0.205 0.384c0.105 0.105 0.239 0.176 0.384 0.205s0.296 0.014 0.433-0.043 0.254-0.153 0.337-0.276c0.082-0.123 0.126-0.268 0.126-0.417 0-0.199-0.079-0.39-0.22-0.53s-0.331-0.22-0.53-0.22zM14.25 10c-0.148 0-0.293 0.044-0.417 0.126s-0.219 0.2-0.276 0.337c-0.057 0.137-0.072 0.288-0.043 0.433s0.1 0.279 0.205 0.384c0.105 0.105 0.239 0.176 0.384 0.205s0.296 0.014 0.433-0.043 0.254-0.153 0.337-0.276c0.082-0.123 0.126-0.268 0.126-0.417 0-0.199-0.079-0.39-0.22-0.53s-0.331-0.22-0.53-0.22zM27 2.5c0 0.133-0.053 0.26-0.146 0.354s-0.221 0.146-0.354 0.146h-1.793l-1.741 1.741-1.354 7.924c-0.030 0.181-0.11 0.35-0.23 0.489s-0.276 0.242-0.451 0.298c-0.175 0.056-0.362 0.063-0.54 0.019s-0.341-0.135-0.471-0.265l-6.125-6.125c-0.13-0.13-0.222-0.293-0.265-0.472s-0.037-0.366 0.020-0.541c0.056-0.175 0.159-0.331 0.299-0.451s0.309-0.2 0.49-0.23l7.921-1.354 1.887-1.888c0.046-0.046 0.102-0.083 0.162-0.108s0.126-0.038 0.191-0.038h2c0.133 0 0.26 0.053 0.354 0.146s0.146 0.221 0.146 0.354zM21.888 5.112l-7.388 1.263 6.125 6.125 1.263-7.388z"></path>
            <path d="M1.131 29v-5.818h2.131c0.413 0 0.755 0.068 1.026 0.205 0.271 0.134 0.473 0.317 0.608 0.548 0.134 0.229 0.202 0.488 0.202 0.776 0 0.242-0.045 0.447-0.134 0.614-0.089 0.165-0.208 0.297-0.358 0.398-0.148 0.099-0.311 0.17-0.489 0.216v0.057c0.193 0.009 0.382 0.072 0.565 0.188 0.186 0.114 0.339 0.276 0.46 0.486s0.182 0.466 0.182 0.767c0 0.297-0.070 0.564-0.21 0.801-0.138 0.235-0.352 0.421-0.642 0.56-0.29 0.136-0.66 0.205-1.111 0.205h-2.23zM2.009 28.247h1.267c0.42 0 0.722-0.081 0.903-0.244s0.273-0.366 0.273-0.611c0-0.184-0.046-0.352-0.139-0.506s-0.225-0.276-0.398-0.366c-0.17-0.091-0.373-0.136-0.608-0.136h-1.298v1.864zM2.009 25.699h1.176c0.197 0 0.374-0.038 0.531-0.114 0.159-0.076 0.285-0.182 0.378-0.318 0.095-0.138 0.142-0.301 0.142-0.489 0-0.241-0.084-0.442-0.253-0.605s-0.427-0.244-0.776-0.244h-1.199v1.77zM7.527 29.097c-0.277 0-0.526-0.051-0.75-0.153-0.223-0.104-0.401-0.255-0.531-0.452-0.129-0.197-0.193-0.438-0.193-0.724 0-0.246 0.047-0.449 0.142-0.608s0.223-0.285 0.384-0.378c0.161-0.093 0.341-0.163 0.54-0.21s0.402-0.083 0.608-0.108c0.261-0.030 0.473-0.055 0.636-0.074 0.163-0.021 0.281-0.054 0.355-0.099s0.111-0.119 0.111-0.222v-0.020c0-0.248-0.070-0.44-0.21-0.577-0.138-0.136-0.345-0.205-0.619-0.205-0.286 0-0.511 0.063-0.676 0.19-0.163 0.125-0.276 0.264-0.338 0.418l-0.798-0.182c0.095-0.265 0.233-0.479 0.415-0.642 0.184-0.165 0.395-0.284 0.634-0.358 0.239-0.076 0.49-0.114 0.753-0.114 0.174 0 0.359 0.021 0.554 0.063 0.197 0.040 0.381 0.114 0.551 0.222 0.172 0.108 0.313 0.262 0.423 0.463 0.11 0.199 0.165 0.457 0.165 0.776v2.898h-0.83v-0.597h-0.034c-0.055 0.11-0.137 0.218-0.247 0.324s-0.251 0.194-0.423 0.264c-0.172 0.070-0.379 0.105-0.619 0.105zM7.712 28.415c0.235 0 0.436-0.046 0.602-0.139 0.169-0.093 0.296-0.214 0.383-0.364 0.089-0.152 0.133-0.313 0.133-0.486v-0.563c-0.030 0.030-0.089 0.059-0.176 0.085-0.085 0.025-0.183 0.046-0.293 0.065-0.11 0.017-0.217 0.033-0.321 0.048-0.104 0.013-0.191 0.025-0.261 0.034-0.165 0.021-0.315 0.056-0.452 0.105-0.135 0.049-0.242 0.12-0.324 0.213-0.080 0.091-0.119 0.212-0.119 0.364 0 0.21 0.078 0.369 0.233 0.477 0.155 0.106 0.353 0.159 0.594 0.159zM12.809 24.636v0.682h-2.384v-0.682h2.384zM11.064 23.591h0.849v4.128c0 0.165 0.025 0.289 0.074 0.372 0.049 0.081 0.113 0.137 0.19 0.168 0.080 0.028 0.166 0.043 0.258 0.043 0.068 0 0.128-0.005 0.179-0.014s0.091-0.017 0.119-0.023l0.153 0.702c-0.049 0.019-0.119 0.038-0.21 0.057-0.091 0.021-0.205 0.032-0.341 0.034-0.223 0.004-0.432-0.036-0.625-0.119s-0.349-0.212-0.469-0.386c-0.119-0.174-0.179-0.393-0.179-0.656v-4.304zM14.651 26.409v2.591h-0.849v-5.818h0.838v2.165h0.054c0.102-0.235 0.259-0.421 0.469-0.56s0.485-0.207 0.824-0.207c0.299 0 0.561 0.062 0.784 0.185 0.225 0.123 0.4 0.307 0.523 0.551 0.125 0.242 0.188 0.545 0.188 0.909v2.776h-0.849v-2.673c0-0.32-0.082-0.568-0.247-0.744-0.165-0.178-0.394-0.267-0.688-0.267-0.201 0-0.381 0.043-0.54 0.128-0.157 0.085-0.281 0.21-0.372 0.375-0.089 0.163-0.133 0.36-0.133 0.591zM18.574 29v-4.364h0.821v0.693h0.045c0.080-0.235 0.22-0.419 0.42-0.554 0.203-0.136 0.432-0.205 0.688-0.205 0.053 0 0.116 0.002 0.188 0.006 0.074 0.004 0.132 0.009 0.173 0.014v0.813c-0.034-0.009-0.095-0.020-0.182-0.031-0.087-0.013-0.174-0.020-0.261-0.020-0.201 0-0.38 0.043-0.537 0.128-0.155 0.083-0.278 0.2-0.369 0.349-0.091 0.148-0.136 0.316-0.136 0.506v2.665h-0.849zM23.287 29.088c-0.409 0-0.766-0.094-1.071-0.281s-0.542-0.45-0.71-0.787c-0.169-0.337-0.253-0.731-0.253-1.182 0-0.453 0.084-0.848 0.253-1.188s0.405-0.602 0.71-0.79c0.305-0.188 0.662-0.281 1.071-0.281s0.766 0.094 1.071 0.281c0.305 0.188 0.542 0.451 0.71 0.79s0.253 0.735 0.253 1.188c0 0.451-0.084 0.845-0.253 1.182s-0.405 0.599-0.71 0.787c-0.305 0.188-0.662 0.281-1.071 0.281zM23.289 28.375c0.265 0 0.485-0.070 0.659-0.21s0.303-0.327 0.386-0.56c0.085-0.233 0.128-0.49 0.128-0.77 0-0.278-0.043-0.534-0.128-0.767-0.083-0.235-0.212-0.423-0.386-0.565s-0.394-0.213-0.659-0.213c-0.267 0-0.489 0.071-0.665 0.213-0.174 0.142-0.304 0.331-0.389 0.565-0.083 0.233-0.125 0.489-0.125 0.767 0 0.28 0.042 0.537 0.125 0.77 0.085 0.233 0.215 0.419 0.389 0.56 0.176 0.14 0.398 0.21 0.665 0.21zM28.067 29.088c-0.409 0-0.766-0.094-1.071-0.281s-0.542-0.45-0.71-0.787c-0.169-0.337-0.253-0.731-0.253-1.182 0-0.453 0.084-0.848 0.253-1.188s0.405-0.602 0.71-0.79c0.305-0.188 0.662-0.281 1.071-0.281s0.766 0.094 1.071 0.281c0.305 0.188 0.542 0.451 0.71 0.79s0.253 0.735 0.253 1.188c0 0.451-0.084 0.845-0.253 1.182s-0.405 0.599-0.71 0.787c-0.305 0.188-0.662 0.281-1.071 0.281zM28.070 28.375c0.265 0 0.485-0.070 0.659-0.21s0.303-0.327 0.386-0.56c0.085-0.233 0.128-0.49 0.128-0.77 0-0.278-0.043-0.534-0.128-0.767-0.083-0.235-0.212-0.423-0.386-0.565s-0.394-0.213-0.659-0.213c-0.267 0-0.489 0.071-0.665 0.213-0.174 0.142-0.304 0.331-0.389 0.565-0.083 0.233-0.125 0.489-0.125 0.767 0 0.28 0.042 0.537 0.125 0.77 0.085 0.233 0.215 0.419 0.389 0.56 0.176 0.14 0.398 0.21 0.665 0.21zM31.009 29v-4.364h0.815v0.71h0.054c0.091-0.241 0.24-0.428 0.446-0.563 0.206-0.136 0.454-0.205 0.741-0.205 0.292 0 0.536 0.068 0.733 0.205 0.199 0.136 0.346 0.324 0.44 0.563h0.045c0.104-0.233 0.27-0.419 0.497-0.557 0.227-0.14 0.498-0.21 0.813-0.21 0.396 0 0.719 0.124 0.969 0.372 0.252 0.248 0.378 0.622 0.378 1.122v2.926h-0.849v-2.847c0-0.295-0.081-0.509-0.242-0.642s-0.353-0.199-0.577-0.199c-0.276 0-0.492 0.085-0.645 0.256-0.153 0.169-0.23 0.385-0.23 0.651v2.781h-0.847v-2.901c0-0.237-0.074-0.427-0.222-0.571s-0.34-0.216-0.577-0.216c-0.161 0-0.31 0.043-0.446 0.128-0.135 0.083-0.243 0.2-0.327 0.349-0.081 0.15-0.122 0.323-0.122 0.52v2.69h-0.849z"></path>
        </symbol>

        <symbol id="icon-van" viewBox="0 0 16 32">
            <path d="M6 1h-5v14h5v-14zM15 1h-5v5h5v-5zM15 10v5h-5v-5h5zM0 1c0-0.265 0.105-0.52 0.293-0.707s0.442-0.293 0.707-0.293h5c0.265 0 0.52 0.105 0.707 0.293s0.293 0.442 0.293 0.707v14c0 0.265-0.105 0.52-0.293 0.707s-0.442 0.293-0.707 0.293h-5c-0.265 0-0.52-0.105-0.707-0.293s-0.293-0.442-0.293-0.707v-14zM9 1c0-0.265 0.105-0.52 0.293-0.707s0.442-0.293 0.707-0.293h5c0.265 0 0.52 0.105 0.707 0.293s0.293 0.442 0.293 0.707v5c0 0.265-0.105 0.52-0.293 0.707s-0.442 0.293-0.707 0.293h-5c-0.265 0-0.52-0.105-0.707-0.293s-0.293-0.442-0.293-0.707v-5zM10 9c-0.265 0-0.52 0.105-0.707 0.293s-0.293 0.442-0.293 0.707v5c0 0.265 0.105 0.52 0.293 0.707s0.442 0.293 0.707 0.293h5c0.265 0 0.52-0.105 0.707-0.293s0.293-0.442 0.293-0.707v-5c0-0.265-0.105-0.52-0.293-0.707s-0.442-0.293-0.707-0.293h-5z"></path>
            <path d="M1.934 23.182l1.619 4.739h0.065l1.619-4.739h0.949l-2.094 5.818h-1.014l-2.094-5.818h0.949zM7.759 29.097c-0.277 0-0.527-0.051-0.75-0.153-0.223-0.104-0.401-0.255-0.531-0.452-0.129-0.197-0.193-0.438-0.193-0.724 0-0.246 0.047-0.449 0.142-0.608s0.223-0.285 0.383-0.378c0.161-0.093 0.341-0.163 0.54-0.21s0.402-0.083 0.608-0.108c0.261-0.030 0.473-0.055 0.636-0.074 0.163-0.021 0.281-0.054 0.355-0.099s0.111-0.119 0.111-0.222v-0.020c0-0.248-0.070-0.44-0.21-0.577-0.138-0.136-0.345-0.205-0.619-0.205-0.286 0-0.511 0.063-0.676 0.19-0.163 0.125-0.276 0.264-0.338 0.418l-0.798-0.182c0.095-0.265 0.233-0.479 0.415-0.642 0.184-0.165 0.395-0.284 0.633-0.358 0.239-0.076 0.49-0.114 0.753-0.114 0.174 0 0.359 0.021 0.554 0.063 0.197 0.040 0.381 0.114 0.551 0.222 0.172 0.108 0.313 0.262 0.423 0.463 0.11 0.199 0.165 0.457 0.165 0.776v2.898h-0.83v-0.597h-0.034c-0.055 0.11-0.137 0.218-0.247 0.324s-0.251 0.194-0.423 0.264c-0.172 0.070-0.379 0.105-0.619 0.105zM7.944 28.415c0.235 0 0.436-0.046 0.602-0.139 0.169-0.093 0.296-0.214 0.384-0.364 0.089-0.152 0.133-0.313 0.133-0.486v-0.563c-0.030 0.030-0.089 0.059-0.176 0.085-0.085 0.025-0.183 0.046-0.293 0.065-0.11 0.017-0.217 0.033-0.321 0.048-0.104 0.013-0.191 0.025-0.261 0.034-0.165 0.021-0.315 0.056-0.452 0.105-0.134 0.049-0.242 0.12-0.324 0.213-0.080 0.091-0.119 0.212-0.119 0.364 0 0.21 0.078 0.369 0.233 0.477 0.155 0.106 0.353 0.159 0.594 0.159zM11.853 26.409v2.591h-0.849v-4.364h0.815v0.71h0.054c0.1-0.231 0.258-0.417 0.472-0.557 0.216-0.14 0.488-0.21 0.815-0.21 0.297 0 0.558 0.063 0.781 0.188 0.223 0.123 0.397 0.307 0.52 0.551s0.185 0.546 0.185 0.906v2.776h-0.849v-2.673c0-0.316-0.082-0.563-0.247-0.741-0.165-0.18-0.391-0.27-0.679-0.27-0.197 0-0.372 0.043-0.526 0.128-0.152 0.085-0.272 0.21-0.361 0.375-0.087 0.163-0.131 0.36-0.131 0.591z"></path>
        </symbol>

        <symbol id="icon-fully" viewBox="0 0 29 32">
            <path d="M9.455 1.818c0-0.289 0.115-0.567 0.32-0.771s0.482-0.32 0.771-0.32h2.182c0.289 0 0.567 0.115 0.771 0.32s0.32 0.482 0.32 0.771v2.182c0 0.289-0.115 0.567-0.32 0.771s-0.482 0.32-0.771 0.32h-2.182c-0.289 0-0.567-0.115-0.771-0.32s-0.32-0.482-0.32-0.771v-2.182zM10.545 1.455c-0.096 0-0.189 0.038-0.257 0.107s-0.107 0.161-0.107 0.257v2.182c0 0.096 0.038 0.189 0.107 0.257s0.161 0.106 0.257 0.106h2.182c0.096 0 0.189-0.038 0.257-0.106s0.107-0.161 0.107-0.257v-2.182c0-0.096-0.038-0.189-0.107-0.257s-0.161-0.107-0.257-0.107h-2.182zM15.273 1.818c0-0.289 0.115-0.567 0.32-0.771s0.482-0.32 0.771-0.32h2.182c0.289 0 0.567 0.115 0.771 0.32s0.32 0.482 0.32 0.771v2.182c0 0.289-0.115 0.567-0.32 0.771s-0.482 0.32-0.771 0.32h-2.182c-0.289 0-0.567-0.115-0.771-0.32s-0.32-0.482-0.32-0.771v-2.182zM16.364 1.455c-0.096 0-0.189 0.038-0.257 0.107s-0.107 0.161-0.107 0.257v2.182c0 0.096 0.038 0.189 0.107 0.257s0.161 0.106 0.257 0.106h2.182c0.096 0 0.189-0.038 0.257-0.106s0.107-0.161 0.107-0.257v-2.182c0-0.096-0.038-0.189-0.107-0.257s-0.161-0.107-0.257-0.107h-2.182zM9.455 7.636c0-0.289 0.115-0.567 0.32-0.771s0.482-0.32 0.771-0.32h2.182c0.289 0 0.567 0.115 0.771 0.32s0.32 0.482 0.32 0.771v2.182c0 0.289-0.115 0.567-0.32 0.771s-0.482 0.32-0.771 0.32h-2.182c-0.289 0-0.567-0.115-0.771-0.32s-0.32-0.482-0.32-0.771v-2.182zM10.545 7.273c-0.096 0-0.189 0.038-0.257 0.106s-0.107 0.161-0.107 0.257v2.182c0 0.096 0.038 0.189 0.107 0.257s0.161 0.107 0.257 0.107h2.182c0.096 0 0.189-0.038 0.257-0.107s0.107-0.161 0.107-0.257v-2.182c0-0.096-0.038-0.189-0.107-0.257s-0.161-0.106-0.257-0.106h-2.182zM15.273 7.636c0-0.289 0.115-0.567 0.32-0.771s0.482-0.32 0.771-0.32h2.182c0.289 0 0.567 0.115 0.771 0.32s0.32 0.482 0.32 0.771v2.182c0 0.289-0.115 0.567-0.32 0.771s-0.482 0.32-0.771 0.32h-2.182c-0.289 0-0.567-0.115-0.771-0.32s-0.32-0.482-0.32-0.771v-2.182zM16.364 7.273c-0.096 0-0.189 0.038-0.257 0.106s-0.107 0.161-0.107 0.257v2.182c0 0.096 0.038 0.189 0.107 0.257s0.161 0.107 0.257 0.107h2.182c0.096 0 0.189-0.038 0.257-0.107s0.107-0.161 0.107-0.257v-2.182c0-0.096-0.038-0.189-0.107-0.257s-0.161-0.106-0.257-0.106h-2.182z"></path>
            <path d="M8.651 21.091v-4.231h2.624v0.55h-1.986v1.289h1.798v0.547h-1.798v1.845h-0.638zM13.793 19.775v-1.857h0.62v3.174h-0.607v-0.55h-0.033c-0.073 0.169-0.19 0.311-0.351 0.424-0.16 0.112-0.359 0.167-0.597 0.167-0.204 0-0.384-0.045-0.541-0.134-0.156-0.091-0.278-0.225-0.368-0.403-0.088-0.178-0.132-0.397-0.132-0.659v-2.019h0.618v1.944c0 0.216 0.060 0.388 0.18 0.517s0.275 0.192 0.467 0.192c0.116 0 0.231-0.029 0.345-0.087 0.116-0.058 0.211-0.145 0.287-0.262 0.077-0.117 0.115-0.266 0.114-0.446zM15.832 16.86v4.231h-0.618v-4.231h0.618zM17.251 16.86v4.231h-0.618v-4.231h0.618zM18.444 22.281c-0.092 0-0.176-0.008-0.252-0.023-0.076-0.014-0.132-0.029-0.169-0.045l0.149-0.506c0.113 0.030 0.213 0.043 0.302 0.039s0.166-0.037 0.233-0.099c0.069-0.062 0.13-0.163 0.182-0.304l0.076-0.211-1.161-3.215h0.661l0.804 2.463h0.033l0.804-2.463h0.663l-1.308 3.597c-0.061 0.165-0.138 0.305-0.231 0.419-0.094 0.116-0.205 0.202-0.335 0.26s-0.28 0.087-0.45 0.087zM1.337 25.587v4.231h-0.638v-4.231h0.638zM2.805 27.934v1.884h-0.618v-3.174h0.593v0.517h0.039c0.073-0.168 0.187-0.303 0.343-0.405 0.157-0.102 0.355-0.153 0.593-0.153 0.216 0 0.406 0.045 0.568 0.136 0.163 0.090 0.289 0.223 0.378 0.401s0.134 0.397 0.134 0.659v2.019h-0.618v-1.944c0-0.23-0.060-0.41-0.18-0.539-0.12-0.131-0.284-0.196-0.494-0.196-0.143 0-0.271 0.031-0.382 0.093-0.11 0.062-0.198 0.153-0.262 0.273-0.063 0.118-0.095 0.262-0.095 0.43zM7.117 26.645v0.496h-1.734v-0.496h1.734zM5.849 25.884h0.618v3.002c0 0.12 0.018 0.21 0.054 0.271 0.036 0.059 0.082 0.1 0.138 0.122 0.058 0.021 0.12 0.031 0.188 0.031 0.050 0 0.093-0.003 0.13-0.010s0.066-0.012 0.087-0.017l0.112 0.51c-0.036 0.014-0.087 0.028-0.153 0.041-0.066 0.015-0.149 0.023-0.248 0.025-0.163 0.003-0.314-0.026-0.455-0.087s-0.254-0.154-0.341-0.281c-0.087-0.127-0.13-0.286-0.13-0.477v-3.13zM9.105 29.882c-0.313 0-0.582-0.067-0.808-0.2-0.225-0.135-0.398-0.324-0.521-0.568-0.121-0.245-0.182-0.532-0.182-0.862 0-0.325 0.061-0.612 0.182-0.86 0.123-0.248 0.293-0.441 0.512-0.581 0.22-0.139 0.478-0.209 0.773-0.209 0.179 0 0.353 0.030 0.521 0.089s0.319 0.152 0.453 0.279c0.134 0.127 0.239 0.291 0.316 0.494 0.077 0.201 0.116 0.446 0.116 0.733v0.219h-2.523v-0.463h1.917c0-0.163-0.033-0.306-0.099-0.432-0.066-0.127-0.159-0.227-0.279-0.3-0.118-0.073-0.258-0.11-0.417-0.11-0.174 0-0.325 0.043-0.455 0.128-0.128 0.084-0.227 0.194-0.298 0.331-0.069 0.135-0.103 0.282-0.103 0.44v0.362c0 0.212 0.037 0.393 0.112 0.541 0.076 0.149 0.181 0.262 0.316 0.341 0.135 0.077 0.293 0.116 0.473 0.116 0.117 0 0.224-0.017 0.32-0.050 0.096-0.034 0.18-0.085 0.25-0.153s0.124-0.151 0.161-0.25l0.585 0.105c-0.047 0.172-0.131 0.323-0.252 0.452-0.12 0.128-0.271 0.228-0.452 0.3-0.18 0.070-0.386 0.105-0.618 0.105zM12.454 31.074c-0.252 0-0.469-0.033-0.651-0.099-0.18-0.066-0.328-0.154-0.442-0.262s-0.2-0.228-0.256-0.357l0.531-0.219c0.037 0.061 0.087 0.125 0.149 0.192 0.063 0.069 0.149 0.127 0.256 0.176 0.109 0.048 0.249 0.072 0.419 0.072 0.234 0 0.428-0.057 0.581-0.172 0.153-0.113 0.229-0.293 0.229-0.541v-0.624h-0.039c-0.037 0.067-0.091 0.143-0.161 0.225-0.069 0.083-0.164 0.154-0.285 0.215s-0.279 0.091-0.473 0.091c-0.251 0-0.477-0.059-0.678-0.176-0.2-0.118-0.358-0.293-0.475-0.523-0.116-0.231-0.174-0.516-0.174-0.853s0.057-0.627 0.171-0.868c0.116-0.241 0.274-0.426 0.475-0.554 0.201-0.13 0.429-0.194 0.684-0.194 0.197 0 0.356 0.033 0.477 0.099 0.121 0.065 0.216 0.14 0.283 0.227 0.069 0.087 0.122 0.163 0.159 0.229h0.045v-0.514h0.605v3.244c0 0.273-0.063 0.497-0.19 0.672s-0.298 0.304-0.514 0.388c-0.215 0.084-0.457 0.126-0.727 0.126zM12.447 29.258c0.178 0 0.328-0.041 0.45-0.124 0.124-0.084 0.218-0.204 0.281-0.36 0.065-0.157 0.097-0.345 0.097-0.564 0-0.213-0.032-0.401-0.095-0.564s-0.156-0.289-0.279-0.38c-0.123-0.092-0.274-0.138-0.455-0.138-0.186 0-0.341 0.048-0.465 0.145-0.124 0.095-0.218 0.224-0.281 0.388-0.062 0.164-0.093 0.347-0.093 0.55 0 0.208 0.032 0.39 0.095 0.548s0.157 0.28 0.281 0.368c0.125 0.088 0.28 0.132 0.463 0.132zM14.685 29.818v-3.174h0.597v0.504h0.033c0.058-0.171 0.16-0.305 0.306-0.403 0.147-0.099 0.314-0.149 0.5-0.149 0.039 0 0.084 0.001 0.136 0.004 0.054 0.003 0.096 0.006 0.126 0.010v0.591c-0.025-0.007-0.069-0.014-0.132-0.023-0.063-0.010-0.127-0.014-0.19-0.014-0.146 0-0.276 0.031-0.39 0.093-0.113 0.061-0.202 0.145-0.269 0.254-0.066 0.107-0.099 0.23-0.099 0.368v1.938h-0.618zM17.784 29.888c-0.201 0-0.383-0.037-0.545-0.112-0.163-0.076-0.291-0.185-0.386-0.328-0.094-0.143-0.14-0.319-0.14-0.527 0-0.179 0.034-0.326 0.103-0.442s0.162-0.207 0.279-0.275c0.117-0.067 0.248-0.118 0.393-0.153s0.292-0.061 0.442-0.078c0.19-0.022 0.344-0.040 0.463-0.054 0.118-0.015 0.205-0.039 0.258-0.072s0.081-0.087 0.081-0.161v-0.014c0-0.18-0.051-0.32-0.153-0.419-0.101-0.099-0.251-0.149-0.45-0.149-0.208 0-0.372 0.046-0.492 0.138-0.118 0.091-0.2 0.192-0.246 0.304l-0.581-0.132c0.069-0.193 0.169-0.349 0.302-0.467 0.134-0.12 0.287-0.207 0.461-0.26 0.174-0.055 0.356-0.083 0.548-0.083 0.127 0 0.261 0.015 0.403 0.045 0.143 0.029 0.277 0.083 0.401 0.161 0.125 0.078 0.228 0.191 0.308 0.337 0.080 0.145 0.12 0.333 0.12 0.564v2.107h-0.603v-0.434h-0.025c-0.040 0.080-0.1 0.158-0.18 0.236s-0.183 0.141-0.308 0.192c-0.125 0.051-0.276 0.076-0.45 0.076zM17.918 29.393c0.171 0 0.317-0.034 0.438-0.101 0.123-0.067 0.216-0.156 0.279-0.264 0.065-0.11 0.097-0.228 0.097-0.353v-0.409c-0.022 0.022-0.065 0.043-0.128 0.062-0.062 0.018-0.133 0.034-0.213 0.048-0.080 0.012-0.158 0.024-0.233 0.035-0.076 0.010-0.139 0.018-0.19 0.025-0.12 0.015-0.229 0.041-0.329 0.076-0.098 0.036-0.176 0.087-0.236 0.155-0.058 0.066-0.087 0.154-0.087 0.264 0 0.153 0.056 0.269 0.169 0.347 0.113 0.077 0.257 0.116 0.432 0.116zM21.625 26.645v0.496h-1.733v-0.496h1.733zM20.357 25.884h0.618v3.002c0 0.12 0.018 0.21 0.054 0.271 0.036 0.059 0.082 0.1 0.138 0.122 0.058 0.021 0.12 0.031 0.188 0.031 0.050 0 0.093-0.003 0.13-0.010s0.066-0.012 0.087-0.017l0.112 0.51c-0.036 0.014-0.087 0.028-0.153 0.041-0.066 0.015-0.149 0.023-0.248 0.025-0.163 0.003-0.314-0.026-0.455-0.087s-0.254-0.154-0.341-0.281c-0.087-0.127-0.13-0.286-0.13-0.477v-3.13zM23.613 29.882c-0.313 0-0.582-0.067-0.808-0.2-0.224-0.135-0.398-0.324-0.521-0.568-0.121-0.245-0.182-0.532-0.182-0.862 0-0.325 0.061-0.612 0.182-0.86 0.123-0.248 0.293-0.441 0.512-0.581 0.22-0.139 0.478-0.209 0.773-0.209 0.179 0 0.353 0.030 0.521 0.089s0.319 0.152 0.452 0.279c0.134 0.127 0.239 0.291 0.316 0.494 0.077 0.201 0.116 0.446 0.116 0.733v0.219h-2.523v-0.463h1.917c0-0.163-0.033-0.306-0.099-0.432-0.066-0.127-0.159-0.227-0.279-0.3-0.118-0.073-0.258-0.11-0.417-0.11-0.174 0-0.325 0.043-0.455 0.128-0.128 0.084-0.227 0.194-0.298 0.331-0.069 0.135-0.103 0.282-0.103 0.44v0.362c0 0.212 0.037 0.393 0.112 0.541 0.076 0.149 0.181 0.262 0.316 0.341 0.135 0.077 0.293 0.116 0.473 0.116 0.117 0 0.224-0.017 0.32-0.050 0.096-0.034 0.18-0.085 0.25-0.153s0.124-0.151 0.161-0.25l0.585 0.105c-0.047 0.172-0.131 0.323-0.252 0.452-0.12 0.128-0.271 0.228-0.452 0.3-0.18 0.070-0.386 0.105-0.618 0.105zM26.819 29.88c-0.256 0-0.485-0.065-0.686-0.196-0.2-0.132-0.357-0.32-0.471-0.564-0.113-0.245-0.169-0.539-0.169-0.882s0.057-0.636 0.172-0.88c0.116-0.244 0.274-0.43 0.475-0.56s0.429-0.194 0.684-0.194c0.197 0 0.355 0.033 0.475 0.099 0.121 0.065 0.215 0.14 0.281 0.227 0.067 0.087 0.12 0.163 0.157 0.229h0.037v-1.572h0.618v4.231h-0.603v-0.494h-0.052c-0.037 0.068-0.091 0.145-0.161 0.231-0.069 0.087-0.164 0.163-0.285 0.227s-0.278 0.097-0.471 0.097zM26.955 29.353c0.178 0 0.328-0.047 0.45-0.14 0.124-0.095 0.218-0.227 0.281-0.395 0.065-0.168 0.097-0.364 0.097-0.587 0-0.22-0.032-0.413-0.095-0.579s-0.156-0.294-0.279-0.386c-0.123-0.092-0.274-0.138-0.455-0.138-0.186 0-0.341 0.048-0.465 0.145s-0.218 0.228-0.281 0.395c-0.062 0.167-0.093 0.355-0.093 0.564 0 0.212 0.032 0.403 0.095 0.572s0.157 0.304 0.281 0.403c0.125 0.098 0.28 0.147 0.463 0.147z"></path>
        </symbol>

        <symbol id="icon-alcove" viewBox="0 0 26 32">
            <path d="M9 2v2h-2v-2h2zM10 14v-2c0-0.265-0.105-0.52-0.293-0.707s-0.442-0.293-0.707-0.293h-2c-0.265 0-0.52 0.105-0.707 0.293s-0.293 0.442-0.293 0.707v2c0 0.265 0.105 0.52 0.293 0.707s0.442 0.293 0.707 0.293h2c0.265 0 0.52-0.105 0.707-0.293s0.293-0.442 0.293-0.707zM10 9v-2c0-0.265-0.105-0.52-0.293-0.707s-0.442-0.293-0.707-0.293h-2c-0.265 0-0.52 0.105-0.707 0.293s-0.293 0.442-0.293 0.707v2c0 0.265 0.105 0.52 0.293 0.707s0.442 0.293 0.707 0.293h2c0.265 0 0.52-0.105 0.707-0.293s0.293-0.442 0.293-0.707zM10 4v-2c0-0.265-0.105-0.52-0.293-0.707s-0.442-0.293-0.707-0.293h-2c-0.265 0-0.52 0.105-0.707 0.293s-0.293 0.442-0.293 0.707v2c0 0.265 0.105 0.52 0.293 0.707s0.442 0.293 0.707 0.293h2c0.265 0 0.52-0.105 0.707-0.293s0.293-0.442 0.293-0.707zM15 14v-2c0-0.265-0.105-0.52-0.293-0.707s-0.442-0.293-0.707-0.293h-2c-0.265 0-0.52 0.105-0.707 0.293s-0.293 0.442-0.293 0.707v2c0 0.265 0.105 0.52 0.293 0.707s0.442 0.293 0.707 0.293h2c0.265 0 0.52-0.105 0.707-0.293s0.293-0.442 0.293-0.707zM15 9v-2c0-0.265-0.105-0.52-0.293-0.707s-0.442-0.293-0.707-0.293h-2c-0.265 0-0.52 0.105-0.707 0.293s-0.293 0.442-0.293 0.707v2c0 0.265 0.105 0.52 0.293 0.707s0.442 0.293 0.707 0.293h2c0.265 0 0.52-0.105 0.707-0.293s0.293-0.442 0.293-0.707zM15 4v-2c0-0.265-0.105-0.52-0.293-0.707s-0.442-0.293-0.707-0.293h-2c-0.265 0-0.52 0.105-0.707 0.293s-0.293 0.442-0.293 0.707v2c0 0.265 0.105 0.52 0.293 0.707s0.442 0.293 0.707 0.293h2c0.265 0 0.52-0.105 0.707-0.293s0.293-0.442 0.293-0.707zM14 2v2h-2v-2h2zM19 2v2h-2v-2h2zM9 7v2h-2v-2h2zM14 7v2h-2v-2h2zM19 7h-2v2h2v-2zM9 12v2h-2v-2h2zM14 12v2h-2v-2h2zM19 12v2h-2v-2h2zM17 1c-0.265 0-0.52 0.105-0.707 0.293s-0.293 0.442-0.293 0.707v2c0 0.265 0.105 0.52 0.293 0.707s0.442 0.293 0.707 0.293h2c0.265 0 0.52-0.105 0.707-0.293s0.293-0.442 0.293-0.707v-2c0-0.265-0.105-0.52-0.293-0.707s-0.442-0.293-0.707-0.293h-2zM16 7c0-0.265 0.105-0.52 0.293-0.707s0.442-0.293 0.707-0.293h2c0.265 0 0.52 0.105 0.707 0.293s0.293 0.442 0.293 0.707v2c0 0.265-0.105 0.52-0.293 0.707s-0.442 0.293-0.707 0.293h-2c-0.265 0-0.52-0.105-0.707-0.293s-0.293-0.442-0.293-0.707v-2zM17 11c-0.265 0-0.52 0.105-0.707 0.293s-0.293 0.442-0.293 0.707v2c0 0.265 0.105 0.52 0.293 0.707s0.442 0.293 0.707 0.293h2c0.265 0 0.52-0.105 0.707-0.293s0.293-0.442 0.293-0.707v-2c0-0.265-0.105-0.52-0.293-0.707s-0.442-0.293-0.707-0.293h-2z"></path>
            <path d="M1.289 29h-0.932l2.094-5.818h1.014l2.094 5.818h-0.932l-1.645-4.761h-0.045l-1.648 4.761zM1.446 26.722h3.023v0.739h-3.023v-0.739zM7.141 23.182v5.818h-0.849v-5.818h0.849zM10.081 29.088c-0.422 0-0.786-0.096-1.091-0.287-0.303-0.193-0.536-0.459-0.699-0.798s-0.244-0.727-0.244-1.165c0-0.443 0.083-0.834 0.25-1.173 0.167-0.341 0.402-0.607 0.705-0.798s0.66-0.287 1.071-0.287c0.331 0 0.627 0.062 0.886 0.185 0.259 0.121 0.469 0.292 0.628 0.511 0.161 0.22 0.257 0.476 0.287 0.77h-0.827c-0.045-0.205-0.15-0.381-0.313-0.528-0.161-0.148-0.377-0.222-0.648-0.222-0.237 0-0.444 0.063-0.622 0.188-0.176 0.123-0.313 0.299-0.412 0.528-0.098 0.227-0.148 0.496-0.148 0.807 0 0.318 0.048 0.593 0.145 0.824s0.233 0.41 0.409 0.537c0.178 0.127 0.387 0.19 0.628 0.19 0.161 0 0.307-0.029 0.438-0.088 0.133-0.061 0.243-0.147 0.332-0.259 0.091-0.112 0.154-0.246 0.19-0.403h0.827c-0.030 0.282-0.122 0.534-0.276 0.756s-0.359 0.396-0.617 0.523c-0.256 0.127-0.556 0.19-0.901 0.19zM14.581 29.088c-0.409 0-0.766-0.094-1.071-0.281s-0.542-0.45-0.71-0.787c-0.169-0.337-0.253-0.731-0.253-1.182 0-0.453 0.084-0.848 0.253-1.188s0.405-0.602 0.71-0.79c0.305-0.188 0.662-0.281 1.071-0.281s0.766 0.094 1.071 0.281c0.305 0.188 0.542 0.451 0.71 0.79s0.253 0.735 0.253 1.188c0 0.451-0.084 0.845-0.253 1.182s-0.405 0.599-0.71 0.787c-0.305 0.188-0.662 0.281-1.071 0.281zM14.583 28.375c0.265 0 0.485-0.070 0.659-0.21s0.303-0.327 0.386-0.56c0.085-0.233 0.128-0.49 0.128-0.77 0-0.278-0.043-0.534-0.128-0.767-0.083-0.235-0.212-0.423-0.386-0.565s-0.394-0.213-0.659-0.213c-0.267 0-0.489 0.071-0.665 0.213-0.174 0.142-0.304 0.331-0.389 0.565-0.083 0.233-0.125 0.489-0.125 0.767 0 0.28 0.042 0.537 0.125 0.77 0.085 0.233 0.215 0.419 0.389 0.56 0.176 0.14 0.398 0.21 0.665 0.21zM21.107 24.636l-1.582 4.364h-0.909l-1.585-4.364h0.912l1.105 3.358h0.045l1.102-3.358h0.912zM23.598 29.088c-0.43 0-0.8-0.092-1.111-0.276-0.309-0.186-0.547-0.446-0.716-0.781-0.167-0.337-0.25-0.732-0.25-1.185 0-0.447 0.083-0.841 0.25-1.182 0.169-0.341 0.403-0.607 0.705-0.798 0.303-0.191 0.657-0.287 1.063-0.287 0.246 0 0.485 0.041 0.716 0.122s0.438 0.209 0.622 0.384c0.184 0.174 0.329 0.401 0.435 0.679 0.106 0.276 0.159 0.613 0.159 1.009v0.301h-3.469v-0.636h2.636c0-0.224-0.045-0.421-0.136-0.594-0.091-0.174-0.219-0.312-0.384-0.412-0.163-0.1-0.354-0.151-0.574-0.151-0.239 0-0.447 0.059-0.625 0.176-0.176 0.116-0.313 0.267-0.409 0.455-0.095 0.186-0.142 0.387-0.142 0.605v0.497c0 0.292 0.051 0.54 0.153 0.744 0.104 0.205 0.249 0.361 0.435 0.469 0.186 0.106 0.402 0.159 0.651 0.159 0.161 0 0.308-0.023 0.44-0.068 0.133-0.047 0.247-0.117 0.344-0.21s0.17-0.207 0.222-0.344l0.804 0.145c-0.064 0.237-0.18 0.444-0.347 0.622-0.165 0.176-0.372 0.313-0.622 0.412-0.248 0.097-0.531 0.145-0.849 0.145z"></path>
        </symbol>

        <symbol id="icon-automatic" viewBox="0 0 39 32">
            <path d="M17.5 3.5c0-0.398 0.158-0.779 0.439-1.061s0.663-0.439 1.061-0.439h1c0.398 0 0.779 0.158 1.061 0.439s0.439 0.663 0.439 1.061v1c0 0.398-0.158 0.779-0.439 1.061s-0.663 0.439-1.061 0.439v1h5.5c0.133 0 0.26 0.053 0.354 0.146s0.146 0.221 0.146 0.354v1c0 0.133-0.053 0.26-0.146 0.354s-0.221 0.146-0.354 0.146c-0.133 0-0.26-0.053-0.354-0.146s-0.146-0.221-0.146-0.354v-0.5h-5v0.5c0 0.133-0.053 0.26-0.146 0.354s-0.221 0.146-0.354 0.146c-0.133 0-0.26-0.053-0.354-0.146s-0.146-0.221-0.146-0.354v-0.5h-5v0.5c0 0.133-0.053 0.26-0.146 0.354s-0.221 0.146-0.354 0.146c-0.133 0-0.26-0.053-0.354-0.146s-0.146-0.221-0.146-0.354v-1c0-0.133 0.053-0.26 0.146-0.354s0.221-0.146 0.354-0.146h5.5v-1c-0.398 0-0.779-0.158-1.061-0.439s-0.439-0.663-0.439-1.061v-1zM20 5c0.133 0 0.26-0.053 0.354-0.146s0.146-0.221 0.146-0.354v-1c0-0.133-0.053-0.26-0.146-0.354s-0.221-0.146-0.354-0.146h-1c-0.133 0-0.26 0.053-0.354 0.146s-0.146 0.221-0.146 0.354v1c0 0.133 0.053 0.26 0.146 0.354s0.221 0.146 0.354 0.146h1zM11.5 11.5c0-0.398 0.158-0.779 0.439-1.061s0.663-0.439 1.061-0.439h1c0.398 0 0.779 0.158 1.061 0.439s0.439 0.663 0.439 1.061v1c0 0.398-0.158 0.779-0.439 1.061s-0.663 0.439-1.061 0.439h-1c-0.398 0-0.779-0.158-1.061-0.439s-0.439-0.663-0.439-1.061v-1zM13 11c-0.133 0-0.26 0.053-0.354 0.146s-0.146 0.221-0.146 0.354v1c0 0.133 0.053 0.26 0.146 0.354s0.221 0.146 0.354 0.146h1c0.133 0 0.26-0.053 0.354-0.146s0.146-0.221 0.146-0.354v-1c0-0.133-0.053-0.26-0.146-0.354s-0.221-0.146-0.354-0.146h-1zM17.5 11.5c0-0.398 0.158-0.779 0.439-1.061s0.663-0.439 1.061-0.439h1c0.398 0 0.779 0.158 1.061 0.439s0.439 0.663 0.439 1.061v1c0 0.398-0.158 0.779-0.439 1.061s-0.663 0.439-1.061 0.439h-1c-0.398 0-0.779-0.158-1.061-0.439s-0.439-0.663-0.439-1.061v-1zM19 11c-0.133 0-0.26 0.053-0.354 0.146s-0.146 0.221-0.146 0.354v1c0 0.133 0.053 0.26 0.146 0.354s0.221 0.146 0.354 0.146h1c0.133 0 0.26-0.053 0.354-0.146s0.146-0.221 0.146-0.354v-1c0-0.133-0.053-0.26-0.146-0.354s-0.221-0.146-0.354-0.146h-1zM23.5 11.5c0-0.398 0.158-0.779 0.439-1.061s0.663-0.439 1.061-0.439h1c0.398 0 0.779 0.158 1.061 0.439s0.439 0.663 0.439 1.061v1c0 0.398-0.158 0.779-0.439 1.061s-0.663 0.439-1.061 0.439h-1c-0.398 0-0.779-0.158-1.061-0.439s-0.439-0.663-0.439-1.061v-1zM25 11c-0.133 0-0.26 0.053-0.354 0.146s-0.146 0.221-0.146 0.354v1c0 0.133 0.053 0.26 0.146 0.354s0.221 0.146 0.354 0.146h1c0.133 0 0.26-0.053 0.354-0.146s0.146-0.221 0.146-0.354v-1c0-0.133-0.053-0.26-0.146-0.354s-0.221-0.146-0.354-0.146h-1z"></path>
            <path d="M1.17 29h-0.932l2.094-5.818h1.014l2.094 5.818h-0.932l-1.645-4.761h-0.045l-1.648 4.761zM1.326 26.722h3.023v0.739h-3.023v-0.739zM8.936 27.19v-2.554h0.852v4.364h-0.835v-0.756h-0.045c-0.1 0.233-0.261 0.427-0.483 0.582-0.22 0.153-0.493 0.23-0.821 0.23-0.28 0-0.528-0.062-0.744-0.185-0.214-0.125-0.383-0.31-0.506-0.554-0.121-0.244-0.182-0.546-0.182-0.906v-2.776h0.849v2.673c0 0.297 0.082 0.534 0.247 0.71s0.379 0.264 0.642 0.264c0.159 0 0.317-0.040 0.474-0.119 0.159-0.079 0.291-0.2 0.395-0.361 0.106-0.161 0.158-0.366 0.156-0.614zM12.926 24.636v0.682h-2.384v-0.682h2.384zM11.182 23.591h0.849v4.128c0 0.165 0.025 0.289 0.074 0.372 0.049 0.081 0.113 0.137 0.19 0.168 0.080 0.028 0.166 0.043 0.259 0.043 0.068 0 0.128-0.005 0.179-0.014s0.091-0.017 0.119-0.023l0.153 0.702c-0.049 0.019-0.119 0.038-0.21 0.057-0.091 0.021-0.205 0.032-0.341 0.034-0.223 0.004-0.432-0.036-0.625-0.119s-0.349-0.212-0.469-0.386c-0.119-0.174-0.179-0.393-0.179-0.656v-4.304zM15.617 29.088c-0.409 0-0.766-0.094-1.071-0.281s-0.542-0.45-0.71-0.787c-0.169-0.337-0.253-0.731-0.253-1.182 0-0.453 0.084-0.848 0.253-1.188s0.405-0.602 0.71-0.79c0.305-0.188 0.662-0.281 1.071-0.281s0.766 0.094 1.071 0.281c0.305 0.188 0.542 0.451 0.71 0.79s0.253 0.735 0.253 1.188c0 0.451-0.084 0.845-0.253 1.182s-0.405 0.599-0.71 0.787c-0.305 0.188-0.662 0.281-1.071 0.281zM15.62 28.375c0.265 0 0.485-0.070 0.659-0.21s0.303-0.327 0.386-0.56c0.085-0.233 0.128-0.49 0.128-0.77 0-0.278-0.043-0.534-0.128-0.767-0.083-0.235-0.212-0.423-0.386-0.565s-0.394-0.213-0.659-0.213c-0.267 0-0.489 0.071-0.665 0.213-0.174 0.142-0.304 0.331-0.389 0.565-0.083 0.233-0.125 0.489-0.125 0.767 0 0.28 0.042 0.537 0.125 0.77 0.085 0.233 0.215 0.419 0.389 0.56 0.176 0.14 0.398 0.21 0.665 0.21zM18.559 29v-4.364h0.815v0.71h0.054c0.091-0.241 0.24-0.428 0.446-0.563 0.206-0.136 0.454-0.205 0.741-0.205 0.292 0 0.536 0.068 0.733 0.205 0.199 0.136 0.346 0.324 0.44 0.563h0.045c0.104-0.233 0.27-0.419 0.497-0.557 0.227-0.14 0.498-0.21 0.813-0.21 0.396 0 0.719 0.124 0.969 0.372 0.252 0.248 0.378 0.622 0.378 1.122v2.926h-0.849v-2.847c0-0.295-0.081-0.509-0.241-0.642s-0.353-0.199-0.577-0.199c-0.276 0-0.491 0.085-0.645 0.256-0.153 0.169-0.23 0.385-0.23 0.651v2.781h-0.847v-2.901c0-0.237-0.074-0.427-0.222-0.571s-0.34-0.216-0.577-0.216c-0.161 0-0.31 0.043-0.446 0.128-0.134 0.083-0.243 0.2-0.327 0.349-0.081 0.15-0.122 0.323-0.122 0.52v2.69h-0.849zM26.86 29.097c-0.276 0-0.526-0.051-0.75-0.153-0.224-0.104-0.401-0.255-0.531-0.452-0.129-0.197-0.193-0.438-0.193-0.724 0-0.246 0.047-0.449 0.142-0.608s0.223-0.285 0.384-0.378c0.161-0.093 0.341-0.163 0.54-0.21s0.402-0.083 0.608-0.108c0.261-0.030 0.474-0.055 0.636-0.074 0.163-0.021 0.281-0.054 0.355-0.099s0.111-0.119 0.111-0.222v-0.020c0-0.248-0.070-0.44-0.21-0.577-0.138-0.136-0.345-0.205-0.619-0.205-0.286 0-0.511 0.063-0.676 0.19-0.163 0.125-0.276 0.264-0.338 0.418l-0.798-0.182c0.095-0.265 0.233-0.479 0.415-0.642 0.184-0.165 0.395-0.284 0.634-0.358 0.239-0.076 0.49-0.114 0.753-0.114 0.174 0 0.359 0.021 0.554 0.063 0.197 0.040 0.381 0.114 0.551 0.222 0.172 0.108 0.313 0.262 0.423 0.463 0.11 0.199 0.165 0.457 0.165 0.776v2.898h-0.83v-0.597h-0.034c-0.055 0.11-0.137 0.218-0.247 0.324s-0.251 0.194-0.423 0.264c-0.172 0.070-0.379 0.105-0.619 0.105zM27.044 28.415c0.235 0 0.436-0.046 0.602-0.139 0.169-0.093 0.296-0.214 0.384-0.364 0.089-0.152 0.134-0.313 0.134-0.486v-0.563c-0.030 0.030-0.089 0.059-0.176 0.085-0.085 0.025-0.183 0.046-0.293 0.065-0.11 0.017-0.217 0.033-0.321 0.048-0.104 0.013-0.191 0.025-0.261 0.034-0.165 0.021-0.315 0.056-0.452 0.105-0.134 0.049-0.242 0.12-0.324 0.213-0.079 0.091-0.119 0.212-0.119 0.364 0 0.21 0.078 0.369 0.233 0.477 0.155 0.106 0.353 0.159 0.594 0.159zM32.141 24.636v0.682h-2.384v-0.682h2.384zM30.397 23.591h0.849v4.128c0 0.165 0.025 0.289 0.074 0.372 0.049 0.081 0.113 0.137 0.19 0.168 0.080 0.028 0.166 0.043 0.259 0.043 0.068 0 0.128-0.005 0.179-0.014s0.091-0.017 0.119-0.023l0.153 0.702c-0.049 0.019-0.119 0.038-0.21 0.057-0.091 0.021-0.205 0.032-0.341 0.034-0.224 0.004-0.432-0.036-0.625-0.119s-0.349-0.212-0.469-0.386c-0.119-0.174-0.179-0.393-0.179-0.656v-4.304zM33.041 29v-4.364h0.849v4.364h-0.849zM33.47 23.963c-0.148 0-0.275-0.049-0.381-0.148-0.104-0.1-0.156-0.22-0.156-0.358 0-0.14 0.052-0.259 0.156-0.358 0.106-0.1 0.233-0.151 0.381-0.151s0.274 0.050 0.378 0.151c0.106 0.098 0.159 0.218 0.159 0.358 0 0.138-0.053 0.258-0.159 0.358-0.104 0.099-0.23 0.148-0.378 0.148zM36.831 29.088c-0.422 0-0.786-0.096-1.091-0.287-0.303-0.193-0.536-0.459-0.699-0.798s-0.244-0.727-0.244-1.165c0-0.443 0.083-0.834 0.25-1.173 0.167-0.341 0.401-0.607 0.705-0.798s0.66-0.287 1.071-0.287c0.331 0 0.627 0.062 0.886 0.185 0.26 0.121 0.469 0.292 0.628 0.511 0.161 0.22 0.257 0.476 0.287 0.77h-0.827c-0.045-0.205-0.15-0.381-0.313-0.528-0.161-0.148-0.377-0.222-0.648-0.222-0.237 0-0.444 0.063-0.622 0.188-0.176 0.123-0.313 0.299-0.412 0.528-0.098 0.227-0.148 0.496-0.148 0.807 0 0.318 0.048 0.593 0.145 0.824s0.233 0.41 0.409 0.537c0.178 0.127 0.387 0.19 0.628 0.19 0.161 0 0.307-0.029 0.438-0.088 0.133-0.061 0.243-0.147 0.332-0.259 0.091-0.112 0.154-0.246 0.19-0.403h0.827c-0.030 0.282-0.122 0.534-0.276 0.756s-0.359 0.396-0.616 0.523c-0.256 0.127-0.556 0.19-0.901 0.19z"></path>
        </symbol>

        <symbol id="icon-heart" viewBox="0 0 32 32">
            <path d="M16 13.139l-1.788-3.578c-0.444-0.886-1.214-2.16-2.304-3.19-1.072-1.014-2.356-1.704-3.908-1.704-3.352 0-6 2.652-6 5.84 0 2.422 1.108 4.132 3.736 6.74 0.674 0.668 1.442 1.39 2.292 2.186 2.216 2.080 4.972 4.668 7.972 8.128 3-3.46 5.756-6.048 7.972-8.128 0.85-0.796 1.62-1.52 2.292-2.186 2.628-2.608 3.736-4.318 3.736-6.74 0-3.188-2.648-5.84-6-5.84-1.554 0-2.836 0.69-3.908 1.704-1.090 1.030-1.86 2.304-2.304 3.19l-1.788 3.578zM16.784 29.723c-0.096 0.114-0.216 0.206-0.352 0.269s-0.283 0.095-0.432 0.095-0.297-0.033-0.432-0.095c-0.135-0.063-0.255-0.155-0.352-0.269-3.202-3.804-6.1-6.524-8.486-8.762-4.13-3.878-6.73-6.316-6.73-10.454 0-4.33 3.58-7.84 8-7.84 3.2 0 5.438 2.1 6.808 4.016 0.52 0.73 0.916 1.432 1.192 1.984 0.346-0.691 0.745-1.354 1.192-1.984 1.37-1.918 3.608-4.016 6.808-4.016 4.42 0 8 3.51 8 7.84 0 4.138-2.6 6.576-6.73 10.454-2.386 2.24-5.284 4.962-8.486 8.762z"></path>
        </symbol>

        <symbol id="icon-kitchen" viewBox="0 0 30 32">
            <path d="M7.25 6c-0.075 0-0.149 0.017-0.216 0.049s-0.127 0.080-0.174 0.138c-0.047 0.058-0.080 0.126-0.097 0.199s-0.017 0.149-0.001 0.222l1.652 7.434c0.123 0.555 0.432 1.052 0.876 1.408s0.995 0.55 1.564 0.55h5.792c0.569-0 1.12-0.194 1.564-0.55s0.753-0.853 0.876-1.408l0.131-0.59c0.765 0.143 1.555-0.017 2.205-0.446s1.107-1.093 1.275-1.853c0.169-0.76 0.036-1.555-0.371-2.219s-1.055-1.143-1.809-1.337l0.221-0.99c0.016-0.073 0.016-0.149-0.001-0.222s-0.050-0.141-0.097-0.199c-0.047-0.058-0.106-0.105-0.174-0.138s-0.141-0.049-0.216-0.049h-13zM19.75 12.5c-0.106 0-0.212-0.008-0.316-0.025l0.867-3.898c0.462 0.134 0.861 0.43 1.123 0.834s0.369 0.889 0.302 1.366c-0.067 0.477-0.304 0.914-0.667 1.23s-0.828 0.491-1.309 0.493zM9.39 13.825l-1.517-6.825h11.754l-1.517 6.825c-0.074 0.333-0.259 0.631-0.526 0.845s-0.597 0.33-0.939 0.33h-5.792c-0.341-0-0.672-0.117-0.939-0.33s-0.451-0.512-0.525-0.845z"></path>
            <path d="M11.15 0.8l-0.003 0.004-0.014 0.019c-0.073 0.1-0.141 0.204-0.204 0.31-0.054 0.085-0.101 0.175-0.141 0.267-0.026 0.060-0.034 0.092-0.037 0.103v0.004c0.012 0.088 0.043 0.173 0.091 0.248 0.075 0.133 0.178 0.272 0.308 0.445l0.010 0.012c0.118 0.158 0.26 0.347 0.37 0.543 0.112 0.2 0.22 0.455 0.22 0.745 0 0.188-0.065 0.368-0.119 0.494-0.058 0.134-0.125 0.264-0.202 0.388-0.078 0.131-0.163 0.259-0.253 0.382l-0.018 0.025-0.005 0.008-0.002 0.002c-0.079 0.106-0.198 0.177-0.329 0.195s-0.265-0.015-0.371-0.094-0.177-0.198-0.195-0.329c-0.019-0.131 0.015-0.265 0.094-0.371l0.003-0.004 0.014-0.019c0.073-0.1 0.141-0.204 0.204-0.31 0.054-0.085 0.101-0.175 0.141-0.267 0.026-0.060 0.034-0.092 0.037-0.103-0.011-0.090-0.041-0.176-0.090-0.252-0.093-0.155-0.196-0.304-0.309-0.445l-0.010-0.012c-0.135-0.173-0.259-0.354-0.37-0.543-0.136-0.225-0.212-0.482-0.22-0.745 0-0.188 0.065-0.368 0.119-0.494 0.059-0.138 0.134-0.274 0.202-0.388 0.079-0.131 0.164-0.258 0.253-0.382l0.025-0.035c0.079-0.106 0.198-0.177 0.329-0.195s0.265 0.015 0.371 0.094 0.177 0.198 0.195 0.329c0.019 0.131-0.015 0.265-0.094 0.371zM14.15 0.8l-0.003 0.004-0.014 0.019c-0.073 0.1-0.141 0.204-0.204 0.31-0.054 0.085-0.101 0.175-0.141 0.267-0.026 0.060-0.034 0.092-0.037 0.103v0.004c0.012 0.088 0.043 0.173 0.091 0.248 0.075 0.133 0.178 0.272 0.308 0.445l0.010 0.012c0.118 0.158 0.26 0.347 0.37 0.543 0.112 0.2 0.22 0.455 0.22 0.745 0 0.188-0.065 0.368-0.119 0.494-0.058 0.134-0.125 0.264-0.202 0.388-0.078 0.131-0.163 0.259-0.253 0.382l-0.018 0.025-0.005 0.008-0.002 0.002c-0.079 0.106-0.198 0.177-0.329 0.195s-0.265-0.015-0.371-0.094-0.177-0.198-0.195-0.329c-0.019-0.131 0.015-0.265 0.094-0.371l0.003-0.004 0.014-0.019c0.073-0.1 0.141-0.204 0.204-0.31 0.054-0.085 0.101-0.175 0.141-0.267 0.026-0.060 0.034-0.092 0.037-0.103-0.011-0.090-0.041-0.176-0.090-0.252-0.093-0.155-0.196-0.304-0.309-0.445l-0.010-0.012c-0.135-0.173-0.259-0.354-0.37-0.543-0.136-0.225-0.212-0.482-0.22-0.745 0-0.188 0.065-0.368 0.119-0.494 0.059-0.138 0.134-0.274 0.202-0.388 0.079-0.131 0.164-0.258 0.253-0.382l0.025-0.035c0.079-0.106 0.198-0.177 0.329-0.195s0.265 0.015 0.371 0.094 0.177 0.198 0.195 0.329c0.019 0.131-0.015 0.265-0.094 0.371zM17.15 0.8l-0.003 0.004-0.014 0.019c-0.073 0.1-0.141 0.204-0.204 0.31-0.054 0.085-0.101 0.175-0.141 0.267-0.026 0.060-0.034 0.092-0.037 0.103v0.004c0.012 0.088 0.043 0.173 0.091 0.248 0.075 0.133 0.178 0.272 0.308 0.445l0.010 0.012c0.118 0.158 0.26 0.347 0.37 0.543 0.112 0.2 0.22 0.455 0.22 0.745 0 0.188-0.065 0.368-0.119 0.494-0.058 0.134-0.125 0.264-0.202 0.388-0.078 0.131-0.162 0.259-0.252 0.382l-0.019 0.025-0.005 0.008-0.002 0.002c-0.079 0.106-0.198 0.177-0.329 0.195s-0.265-0.015-0.371-0.094-0.177-0.198-0.195-0.329c-0.019-0.131 0.015-0.265 0.094-0.371l0.003-0.004 0.014-0.019c0.073-0.1 0.141-0.204 0.204-0.31 0.054-0.085 0.101-0.175 0.141-0.267 0.026-0.060 0.034-0.092 0.037-0.103-0.011-0.090-0.041-0.176-0.090-0.252-0.093-0.155-0.196-0.304-0.309-0.445l-0.010-0.012c-0.135-0.173-0.259-0.354-0.37-0.543-0.136-0.225-0.212-0.482-0.22-0.745 0-0.188 0.065-0.368 0.119-0.494 0.059-0.138 0.134-0.274 0.202-0.388 0.079-0.131 0.164-0.258 0.253-0.382l0.025-0.035c0.079-0.106 0.198-0.177 0.329-0.195s0.265 0.015 0.371 0.094 0.177 0.198 0.195 0.329c0.019 0.131-0.015 0.265-0.094 0.371z"></path>
            <path d="M0.841 29v-5.818h0.878v2.778h0.071l2.44-2.778h1.105l-2.347 2.619 2.355 3.199h-1.057l-1.881-2.599-0.688 0.79v1.81h-0.878zM6.319 29v-4.364h0.849v4.364h-0.849zM6.748 23.963c-0.148 0-0.275-0.049-0.381-0.148-0.104-0.1-0.156-0.22-0.156-0.358 0-0.14 0.052-0.259 0.156-0.358 0.106-0.1 0.233-0.151 0.381-0.151s0.274 0.050 0.378 0.151c0.106 0.098 0.159 0.218 0.159 0.358 0 0.138-0.053 0.258-0.159 0.358-0.104 0.099-0.23 0.148-0.378 0.148zM10.308 24.636v0.682h-2.383v-0.682h2.383zM8.564 23.591h0.849v4.128c0 0.165 0.025 0.289 0.074 0.372 0.049 0.081 0.113 0.137 0.19 0.168 0.079 0.028 0.166 0.043 0.258 0.043 0.068 0 0.128-0.005 0.179-0.014s0.091-0.017 0.119-0.023l0.153 0.702c-0.049 0.019-0.119 0.038-0.21 0.057-0.091 0.021-0.205 0.032-0.341 0.034-0.223 0.004-0.432-0.036-0.625-0.119s-0.349-0.212-0.469-0.386c-0.119-0.174-0.179-0.393-0.179-0.656v-4.304zM12.999 29.088c-0.422 0-0.786-0.096-1.091-0.287-0.303-0.193-0.536-0.459-0.699-0.798s-0.244-0.727-0.244-1.165c0-0.443 0.083-0.834 0.25-1.173 0.167-0.341 0.402-0.607 0.705-0.798s0.66-0.287 1.071-0.287c0.331 0 0.627 0.062 0.886 0.185 0.259 0.121 0.469 0.292 0.628 0.511 0.161 0.22 0.257 0.476 0.287 0.77h-0.827c-0.045-0.205-0.15-0.381-0.313-0.528-0.161-0.148-0.377-0.222-0.648-0.222-0.237 0-0.444 0.063-0.622 0.188-0.176 0.123-0.313 0.299-0.412 0.528-0.098 0.227-0.148 0.496-0.148 0.807 0 0.318 0.048 0.593 0.145 0.824s0.233 0.41 0.409 0.537c0.178 0.127 0.387 0.19 0.628 0.19 0.161 0 0.307-0.029 0.438-0.088 0.133-0.061 0.243-0.147 0.332-0.259 0.091-0.112 0.154-0.246 0.19-0.403h0.827c-0.030 0.282-0.122 0.534-0.276 0.756s-0.359 0.396-0.617 0.523c-0.256 0.127-0.556 0.19-0.901 0.19zM16.509 26.409v2.591h-0.849v-5.818h0.838v2.165h0.054c0.102-0.235 0.259-0.421 0.469-0.56s0.485-0.207 0.824-0.207c0.299 0 0.561 0.062 0.784 0.185 0.225 0.123 0.4 0.307 0.523 0.551 0.125 0.242 0.188 0.545 0.188 0.909v2.776h-0.849v-2.673c0-0.32-0.082-0.568-0.247-0.744-0.165-0.178-0.394-0.267-0.688-0.267-0.201 0-0.381 0.043-0.54 0.128-0.157 0.085-0.281 0.21-0.372 0.375-0.089 0.163-0.134 0.36-0.134 0.591zM22.313 29.088c-0.43 0-0.8-0.092-1.111-0.276-0.309-0.186-0.547-0.446-0.716-0.781-0.167-0.337-0.25-0.732-0.25-1.185 0-0.447 0.083-0.841 0.25-1.182 0.169-0.341 0.403-0.607 0.705-0.798 0.303-0.191 0.657-0.287 1.063-0.287 0.246 0 0.485 0.041 0.716 0.122s0.438 0.209 0.622 0.384c0.184 0.174 0.329 0.401 0.435 0.679 0.106 0.276 0.159 0.613 0.159 1.009v0.301h-3.469v-0.636h2.636c0-0.224-0.045-0.421-0.136-0.594-0.091-0.174-0.219-0.312-0.384-0.412-0.163-0.1-0.354-0.151-0.574-0.151-0.239 0-0.447 0.059-0.625 0.176-0.176 0.116-0.313 0.267-0.409 0.455-0.095 0.186-0.142 0.387-0.142 0.605v0.497c0 0.292 0.051 0.54 0.153 0.744 0.104 0.205 0.249 0.361 0.435 0.469 0.186 0.106 0.402 0.159 0.651 0.159 0.161 0 0.308-0.023 0.44-0.068 0.133-0.047 0.247-0.117 0.344-0.21s0.171-0.207 0.222-0.344l0.804 0.145c-0.064 0.237-0.18 0.444-0.347 0.622-0.165 0.176-0.372 0.313-0.622 0.412-0.248 0.097-0.531 0.145-0.849 0.145zM25.937 26.409v2.591h-0.849v-4.364h0.815v0.71h0.054c0.1-0.231 0.258-0.417 0.472-0.557 0.216-0.14 0.488-0.21 0.815-0.21 0.297 0 0.558 0.063 0.781 0.188 0.224 0.123 0.397 0.307 0.52 0.551s0.185 0.546 0.185 0.906v2.776h-0.849v-2.673c0-0.316-0.082-0.563-0.247-0.741-0.165-0.18-0.391-0.27-0.679-0.27-0.197 0-0.372 0.043-0.526 0.128-0.151 0.085-0.272 0.21-0.361 0.375-0.087 0.163-0.131 0.36-0.131 0.591z"></path>
        </symbol>

        <symbol id="icon-ac" viewBox="0 0 16 32">
            <path d="M12.5 2c-0.663 0-1.299 0.263-1.768 0.732s-0.732 1.105-0.732 1.768c0 0.133-0.053 0.26-0.146 0.354s-0.221 0.146-0.354 0.146c-0.133 0-0.26-0.053-0.354-0.146s-0.146-0.221-0.146-0.354c0-0.692 0.205-1.369 0.59-1.944s0.931-1.024 1.571-1.289c0.64-0.265 1.343-0.334 2.022-0.199s1.303 0.468 1.792 0.958c0.489 0.49 0.823 1.113 0.958 1.792s0.066 1.383-0.199 2.022c-0.265 0.64-0.714 1.186-1.289 1.571s-1.252 0.59-1.944 0.59h-12c-0.133 0-0.26-0.053-0.354-0.146s-0.146-0.221-0.146-0.354c0-0.133 0.053-0.26 0.146-0.354s0.221-0.146 0.354-0.146h12c0.663 0 1.299-0.263 1.768-0.732s0.732-1.105 0.732-1.768-0.263-1.299-0.732-1.768c-0.469-0.469-1.105-0.732-1.768-0.732zM5.5 3c-0.265 0-0.52 0.105-0.707 0.293s-0.293 0.442-0.293 0.707c0 0.133-0.053 0.26-0.146 0.354s-0.221 0.146-0.354 0.146c-0.133 0-0.26-0.053-0.354-0.146s-0.146-0.221-0.146-0.354c0-0.396 0.117-0.782 0.337-1.111s0.532-0.585 0.898-0.737c0.365-0.151 0.768-0.191 1.156-0.114s0.744 0.268 1.024 0.547 0.47 0.636 0.547 1.024c0.077 0.388 0.038 0.79-0.114 1.156s-0.408 0.678-0.737 0.898-0.716 0.337-1.111 0.337h-5c-0.133 0-0.26-0.053-0.354-0.146s-0.146-0.221-0.146-0.354c0-0.133 0.053-0.26 0.146-0.354s0.221-0.146 0.354-0.146h5c0.265 0 0.52-0.105 0.707-0.293s0.293-0.442 0.293-0.707c0-0.265-0.105-0.52-0.293-0.707s-0.442-0.293-0.707-0.293zM0 9.5c0-0.133 0.053-0.26 0.146-0.354s0.221-0.146 0.354-0.146h10.042c0.593 0 1.173 0.176 1.667 0.506s0.878 0.798 1.105 1.346c0.227 0.548 0.286 1.151 0.171 1.733s-0.401 1.117-0.821 1.536c-0.42 0.42-0.954 0.705-1.536 0.821s-1.185 0.056-1.733-0.171-1.017-0.612-1.346-1.105c-0.33-0.493-0.506-1.073-0.506-1.667 0-0.133 0.053-0.26 0.146-0.354s0.221-0.146 0.354-0.146c0.133 0 0.26 0.053 0.354 0.146s0.146 0.221 0.146 0.354c0 0.396 0.117 0.782 0.337 1.111s0.532 0.585 0.898 0.737c0.365 0.151 0.768 0.191 1.156 0.114s0.744-0.268 1.024-0.547 0.47-0.636 0.547-1.024c0.077-0.388 0.038-0.79-0.114-1.156s-0.408-0.678-0.737-0.898-0.716-0.337-1.111-0.337h-10.042c-0.133 0-0.26-0.053-0.354-0.146s-0.146-0.221-0.146-0.354z"></path>
            <path d="M3.545 29h-0.932l2.094-5.818h1.014l2.094 5.818h-0.932l-1.645-4.761h-0.045l-1.648 4.761zM3.701 26.722h3.023v0.739h-3.023v-0.739zM13.174 25.074h-0.886c-0.034-0.189-0.098-0.356-0.19-0.5s-0.206-0.266-0.341-0.366c-0.134-0.1-0.285-0.176-0.452-0.227-0.165-0.051-0.34-0.077-0.526-0.077-0.335 0-0.635 0.084-0.901 0.253-0.263 0.169-0.472 0.416-0.625 0.741-0.152 0.326-0.227 0.723-0.227 1.193 0 0.474 0.076 0.873 0.227 1.199 0.153 0.326 0.363 0.572 0.628 0.739s0.563 0.25 0.895 0.25c0.184 0 0.358-0.025 0.523-0.074 0.167-0.051 0.317-0.126 0.452-0.224s0.248-0.219 0.341-0.361c0.095-0.144 0.16-0.309 0.196-0.494l0.886 0.003c-0.047 0.286-0.139 0.549-0.276 0.79-0.134 0.239-0.308 0.445-0.52 0.619-0.21 0.172-0.451 0.306-0.722 0.401s-0.566 0.142-0.886 0.142c-0.504 0-0.953-0.119-1.347-0.358-0.394-0.241-0.705-0.584-0.932-1.031-0.225-0.447-0.338-0.98-0.338-1.599 0-0.621 0.114-1.154 0.341-1.599 0.227-0.447 0.538-0.79 0.932-1.028 0.394-0.241 0.842-0.361 1.344-0.361 0.309 0 0.597 0.045 0.864 0.134 0.269 0.087 0.51 0.216 0.724 0.386 0.214 0.169 0.391 0.375 0.531 0.619 0.14 0.242 0.235 0.52 0.284 0.832z"></path>
        </symbol>

        <symbol id="icon-rating" viewBox="0 0 34 32">
            <path d="M16.123 1.788c0.4-0.759 1.487-0.759 1.887 0l4.028 7.635c0.154 0.293 0.436 0.497 0.761 0.553l8.506 1.472c0.845 0.146 1.181 1.179 0.583 1.794l-6.017 6.19c-0.23 0.237-0.338 0.568-0.291 0.895l1.229 8.544c0.122 0.849-0.757 1.488-1.526 1.109l-7.747-3.809c-0.297-0.146-0.645-0.146-0.941 0l-7.747 3.809c-0.77 0.378-1.649-0.26-1.526-1.109l1.229-8.544c0.047-0.327-0.060-0.658-0.291-0.895l-6.016-6.19c-0.598-0.615-0.262-1.648 0.583-1.794l8.506-1.472c0.326-0.056 0.607-0.261 0.762-0.553l4.028-7.635z"></path>
        </symbol>

        <symbol id="icon-location" viewBox="0 0 32 32">
            <path d="M31.634 0.226c0.115 0.094 0.207 0.212 0.27 0.346s0.096 0.28 0.096 0.428v28c-0 0.231-0.080 0.455-0.227 0.634s-0.351 0.301-0.577 0.346l-10 2c-0.129 0.026-0.263 0.026-0.392 0l-9.804-1.96-9.804 1.96c-0.145 0.029-0.295 0.025-0.438-0.010s-0.277-0.103-0.392-0.197c-0.114-0.094-0.207-0.212-0.27-0.345s-0.096-0.28-0.096-0.428v-28c0-0.231 0.080-0.455 0.227-0.634s0.351-0.301 0.577-0.346l10-2c0.129-0.026 0.263-0.026 0.392 0l9.804 1.96 9.804-1.96c0.145-0.029 0.295-0.026 0.438 0.010s0.277 0.103 0.392 0.196zM20 3.82l-8-1.6v25.96l8 1.6v-25.96zM22 29.78l8-1.6v-25.96l-8 1.6v25.96zM10 28.18v-25.96l-8 1.6v25.96l8-1.6z"></path>
        </symbol>

        <symbol id="icon-category-kitchen" viewBox="0 0 32 32">
            <path d="M1 12c-0.157 0-0.306 0.036-0.438 0.101l0.006-0.003c-0.27 0.132-0.469 0.375-0.54 0.667l-0.001 0.007c-0.017 0.068-0.026 0.147-0.026 0.227 0 0.077 0.009 0.151 0.025 0.223l-0.001-0.007 3.304 14.868c0.514 2.257 2.503 3.915 4.88 3.916h11.584c2.377-0 4.366-1.659 4.874-3.882l0.006-0.034 0.262-1.18c0.332 0.065 0.713 0.102 1.103 0.102 2.853 0 5.241-1.991 5.85-4.659l0.008-0.040c0.091-0.391 0.143-0.84 0.143-1.301 0-2.782-1.893-5.121-4.461-5.801l-0.042-0.009 0.442-1.98c0.015-0.065 0.024-0.139 0.024-0.216 0-0.395-0.229-0.737-0.561-0.899l-0.006-0.003c-0.126-0.062-0.275-0.098-0.432-0.098h-26zM26 25c-0.001 0-0.001 0-0.002 0-0.222 0-0.441-0.018-0.653-0.053l0.023 0.003 1.734-7.796c1.682 0.498 2.889 2.030 2.889 3.844 0 1.201-0.529 2.279-1.368 3.013l-0.005 0.004c-0.696 0.61-1.614 0.983-2.618 0.986h-0.001zM5.28 27.65l-3.034-13.65h23.508l-3.034 13.65c-0.308 1.354-1.502 2.35-2.928 2.35h-11.584c-1.426-0-2.62-0.996-2.924-2.33l-0.004-0.020z"></path>
            <path d="M8.8 1.6l-0.006 0.008-0.028 0.038c-0.128 0.173-0.262 0.375-0.388 0.584l-0.020 0.036c-0.097 0.151-0.191 0.326-0.272 0.508l-0.010 0.026c-0.052 0.12-0.068 0.184-0.074 0.206v0.008c0.025 0.187 0.089 0.355 0.185 0.501l-0.003-0.005c0.15 0.266 0.356 0.544 0.616 0.89l0.020 0.024c0.236 0.316 0.52 0.694 0.74 1.086 0.224 0.4 0.44 0.91 0.44 1.49 0 0.376-0.13 0.736-0.238 0.988-0.132 0.303-0.267 0.558-0.419 0.801l0.015-0.025c-0.181 0.301-0.348 0.551-0.525 0.792l0.019-0.028-0.036 0.050-0.010 0.016-0.004 0.004c-0.184 0.245-0.474 0.401-0.801 0.401-0.552 0-1-0.448-1-1 0-0.226 0.075-0.434 0.201-0.602l-0.002 0.003 0.006-0.008 0.028-0.038c0.128-0.173 0.262-0.375 0.388-0.584l0.020-0.036c0.097-0.151 0.191-0.326 0.272-0.508l0.010-0.026c0.052-0.12 0.068-0.184 0.074-0.206-0.023-0.189-0.087-0.36-0.183-0.509l0.003 0.005c-0.204-0.339-0.408-0.63-0.63-0.905l0.012 0.015-0.020-0.024c-0.249-0.316-0.494-0.67-0.715-1.040l-0.025-0.046c-0.261-0.425-0.423-0.937-0.44-1.485l-0-0.005c0-0.376 0.13-0.736 0.238-0.988 0.118-0.276 0.268-0.548 0.404-0.776 0.159-0.261 0.328-0.516 0.506-0.764l0.050-0.070c0.184-0.245 0.474-0.401 0.801-0.401 0.552 0 1 0.448 1 1 0 0.226-0.075 0.434-0.201 0.602l0.002-0.003zM14.8 1.6l-0.006 0.008-0.028 0.038c-0.128 0.173-0.262 0.375-0.388 0.584l-0.020 0.036c-0.097 0.151-0.191 0.326-0.272 0.508l-0.010 0.026c-0.052 0.12-0.068 0.184-0.074 0.206v0.008c0.025 0.187 0.089 0.355 0.185 0.501l-0.003-0.005c0.15 0.266 0.356 0.544 0.616 0.89l0.020 0.024c0.236 0.316 0.52 0.694 0.74 1.086 0.224 0.4 0.44 0.91 0.44 1.49 0 0.376-0.13 0.736-0.238 0.988-0.132 0.303-0.267 0.558-0.419 0.801l0.015-0.025c-0.181 0.301-0.348 0.551-0.525 0.791l0.019-0.027-0.036 0.050-0.010 0.016-0.004 0.004c-0.185 0.238-0.471 0.39-0.793 0.39-0.552 0-1-0.448-1-1 0-0.221 0.072-0.425 0.193-0.591l-0.002 0.003 0.006-0.008 0.028-0.038c0.128-0.173 0.262-0.375 0.388-0.584l0.020-0.036c0.097-0.151 0.191-0.326 0.272-0.508l0.010-0.026c0.052-0.12 0.068-0.184 0.074-0.206-0.023-0.189-0.087-0.36-0.183-0.509l0.003 0.005c-0.204-0.339-0.408-0.63-0.63-0.905l0.012 0.015-0.020-0.024c-0.249-0.316-0.494-0.67-0.715-1.040l-0.025-0.046c-0.261-0.425-0.423-0.937-0.44-1.485l-0-0.005c0-0.376 0.13-0.736 0.238-0.988 0.118-0.276 0.268-0.548 0.404-0.776 0.187-0.307 0.354-0.556 0.53-0.799l-0.024 0.035 0.050-0.070c0.184-0.245 0.474-0.401 0.801-0.401 0.552 0 1 0.448 1 1 0 0.226-0.075 0.434-0.201 0.602l0.002-0.003zM20.8 1.6l-0.006 0.008-0.028 0.038c-0.128 0.173-0.262 0.375-0.388 0.584l-0.020 0.036c-0.097 0.151-0.191 0.326-0.272 0.508l-0.010 0.026c-0.052 0.12-0.068 0.184-0.074 0.206v0.008c0.025 0.187 0.089 0.355 0.185 0.501l-0.003-0.005c0.15 0.266 0.356 0.544 0.616 0.89l0.020 0.024c0.236 0.316 0.52 0.694 0.74 1.086 0.224 0.4 0.44 0.91 0.44 1.49 0 0.376-0.13 0.736-0.238 0.988-0.132 0.303-0.267 0.558-0.419 0.801l0.015-0.025c-0.18 0.302-0.347 0.551-0.524 0.792l0.020-0.028-0.038 0.050-0.010 0.016-0.004 0.004c-0.185 0.238-0.471 0.39-0.793 0.39-0.552 0-1-0.448-1-1 0-0.221 0.072-0.425 0.193-0.591l-0.002 0.003 0.006-0.008 0.028-0.038c0.128-0.173 0.262-0.375 0.388-0.584l0.020-0.036c0.097-0.151 0.191-0.326 0.272-0.508l0.010-0.026c0.052-0.12 0.068-0.184 0.074-0.206-0.023-0.189-0.087-0.36-0.183-0.509l0.003 0.005c-0.204-0.339-0.408-0.63-0.63-0.905l0.012 0.015-0.020-0.024c-0.249-0.316-0.494-0.67-0.715-1.040l-0.025-0.046c-0.261-0.425-0.423-0.937-0.44-1.485l-0-0.005c0-0.376 0.13-0.736 0.238-0.988 0.118-0.276 0.268-0.548 0.404-0.776 0.187-0.307 0.354-0.556 0.53-0.799l-0.024 0.035 0.050-0.070c0.184-0.245 0.474-0.401 0.801-0.401 0.552 0 1 0.448 1 1 0 0.226-0.075 0.434-0.201 0.602l0.002-0.003z"></path>
        </symbol>

        <symbol id="icon-category-transmission" viewBox="0 0 32 32">
            <path d="M12 7c0-1.657 1.343-3 3-3v0h2c1.657 0 3 1.343 3 3v0 2c0 1.657-1.343 3-3 3v0 2h11c0.552 0 1 0.448 1 1v0 2c-0.008 0.546-0.453 0.986-1 0.986s-0.992-0.44-1-0.985v-1.001h-10v1c-0.008 0.546-0.453 0.986-1 0.986s-0.992-0.44-1-0.985v-1.001h-10v1c0 0.552-0.448 1-1 1s-1-0.448-1-1v0-2c0-0.552 0.448-1 1-1v0h11v-2c-1.657 0-3-1.343-3-3v0-2zM17 10c0.552 0 1-0.448 1-1v0-2c-0-0.552-0.448-1-1-1h-2c-0.552 0-1 0.448-1 1v0 2c0 0.552 0.448 1 1 1h2zM0 23c0-1.657 1.343-3 3-3v0h2c1.657 0 3 1.343 3 3v0 2c0 1.657-1.343 3-3 3v0h-2c-1.657 0-3-1.343-3-3v0-2zM3 22c-0.552 0-1 0.448-1 1v0 2c0 0.552 0.448 1 1 1v0h2c0.552-0 1-0.448 1-1v0-2c0-0.552-0.448-1-1-1v0h-2zM12 23c0-1.657 1.343-3 3-3v0h2c1.657 0 3 1.343 3 3v0 2c0 1.657-1.343 3-3 3v0h-2c-1.657 0-3-1.343-3-3v0-2zM15 22c-0.552 0-1 0.448-1 1v0 2c0 0.552 0.448 1 1 1h2c0.552-0 1-0.448 1-1v0-2c-0-0.552-0.448-1-1-1h-2zM24 23c0-1.657 1.343-3 3-3v0h2c1.657 0 3 1.343 3 3v0 2c0 1.657-1.343 3-3 3v0h-2c-1.657 0-3-1.343-3-3v0-2zM27 22c-0.552 0-1 0.448-1 1v0 2c0 0.552 0.448 1 1 1h2c0.552-0 1-0.448 1-1v0-2c-0-0.552-0.448-1-1-1h-2z"></path>
        </symbol>


        <symbol id="icon-category-gas" viewBox="0 0 32 32">
            <path d="M6.347 1.528c-1.245 0.13-1.772 0.259-2.503 0.614-0.473 0.229-0.621 0.334-0.994 0.708-0.374 0.373-0.479 0.521-0.708 0.994-0.287 0.592-0.44 1.113-0.552 1.889-0.102 0.704-0.102 19.83 0 20.534 0.112 0.776 0.265 1.297 0.552 1.889 0.229 0.473 0.334 0.621 0.708 0.994s0.52 0.479 0.994 0.708c0.576 0.279 0.931 0.39 1.703 0.531 0.396 0.072 1.656 0.086 9.973 0.104 6.873 0.016 9.716 0.005 10.226-0.039 1.020-0.089 1.739-0.266 2.408-0.593 0.473-0.231 0.625-0.339 0.996-0.711 0.372-0.372 0.48-0.523 0.712-0.996 0.31-0.635 0.496-1.368 0.588-2.31 0.078-0.805 0.078-18.883 0-19.688-0.092-0.942-0.278-1.675-0.588-2.31-0.232-0.473-0.34-0.624-0.712-0.996-0.373-0.374-0.52-0.479-0.994-0.708-0.576-0.279-0.931-0.39-1.703-0.531-0.398-0.073-1.639-0.084-10.186-0.093-5.354-0.005-9.818 0-9.92 0.010zM25.056 3.894c2.488 0.151 2.899 0.562 3.050 3.050 0.070 1.153 0.070 16.959 0 18.112-0.151 2.488-0.562 2.899-3.050 3.050-1.153 0.070-16.959 0.070-18.112 0-2.488-0.151-2.899-0.562-3.050-3.050-0.070-1.153-0.070-16.959 0-18.112 0.106-1.743 0.367-2.385 1.101-2.71 0.389-0.172 1.021-0.289 1.816-0.337 1.036-0.062 17.226-0.065 18.245-0.003zM15.52 5.578c-0.409 0.178-0.64 0.514-0.689 1.003l-0.031 0.315-0.427 0.117c-2.36 0.648-4.045 2.334-4.693 4.694l-0.117 0.426-0.315 0.031c-0.357 0.036-0.57 0.132-0.779 0.351-0.413 0.436-0.413 1.201 0 1.636 0.209 0.22 0.422 0.316 0.781 0.351l0.316 0.031 0.116 0.427c0.642 2.357 2.334 4.049 4.691 4.691l0.427 0.116 0.031 0.317c0.035 0.358 0.131 0.571 0.351 0.78 0.436 0.414 1.2 0.414 1.636 0 0.219-0.208 0.316-0.422 0.351-0.779l0.031-0.314 0.267-0.074c1.506-0.415 2.554-1.048 3.457-2.086 0.69-0.794 1.11-1.613 1.44-2.811l0.073-0.267 0.315-0.031c0.357-0.035 0.57-0.131 0.779-0.351 0.413-0.435 0.413-1.2 0-1.636-0.209-0.219-0.422-0.315-0.779-0.351l-0.315-0.031-0.073-0.266c-0.384-1.383-0.877-2.268-1.754-3.144-0.835-0.836-1.791-1.383-2.983-1.707l-0.427-0.116-0.031-0.317c-0.049-0.497-0.282-0.832-0.701-1.007-0.249-0.104-0.704-0.103-0.948 0.002zM15.092 9.438c0.031 0.058 0.17 0.172 0.309 0.254 0.208 0.122 0.314 0.148 0.599 0.146 0.388-0.002 0.625-0.1 0.868-0.36l0.149-0.16 0.323 0.097c1.077 0.326 2.252 1.501 2.578 2.578l0.098 0.323-0.16 0.149c-0.234 0.216-0.379 0.524-0.379 0.866 0 0.328 0.134 0.624 0.349 0.838l0.188 0.188-0.097 0.319c-0.325 1.074-1.501 2.25-2.577 2.575l-0.323 0.098-0.149-0.16c-0.244-0.261-0.48-0.359-0.868-0.359s-0.624 0.098-0.868 0.359l-0.149 0.16-0.323-0.098c-1.077-0.326-2.252-1.501-2.578-2.578l-0.098-0.322 0.16-0.15c0.262-0.244 0.359-0.48 0.359-0.868s-0.097-0.624-0.359-0.868l-0.16-0.149 0.098-0.323c0.313-1.032 1.38-2.137 2.45-2.534 0.401-0.15 0.49-0.153 0.56-0.021zM7.493 24.261c-0.909 0.421-0.885 1.777 0.039 2.163 0.171 0.071 0.6 0.083 3.146 0.081 2.756-0.001 2.963-0.007 3.162-0.099 0.894-0.414 0.894-1.731 0-2.145-0.2-0.092-0.405-0.099-3.173-0.099s-2.974 0.007-3.174 0.099zM23.493 24.261c-0.428 0.199-0.666 0.591-0.666 1.099 0 0.358 0.126 0.633 0.402 0.875 0.254 0.223 0.413 0.281 0.771 0.281s0.517-0.058 0.771-0.281c0.28-0.246 0.403-0.517 0.401-0.886-0.003-0.705-0.486-1.191-1.184-1.188-0.179 0.003-0.349 0.040-0.504 0.103l0.009-0.003z"></path>
        </symbol>

        <symbol id="icon-category-water" viewBox="0 0 32 32">
            <path fill="none" stroke="currentColor" stroke-linejoin="miter" stroke-linecap="butt" stroke-miterlimit="10" stroke-width="2" d="M25 20c0 5.523-3.477 9-9 9s-9-3.477-9-9c0-5.927 6.452-13.928 8.431-16.242 0.138-0.161 0.342-0.262 0.57-0.262s0.431 0.101 0.569 0.261l0.001 0.001c1.978 2.314 8.43 10.316 8.43 16.242z"></path>
            <path fill="none" stroke="currentColor" stroke-linejoin="round" stroke-linecap="round" stroke-miterlimit="4" stroke-width="2" d="M21.5 20.5c0 2.485-2.015 4.5-4.5 4.5v0"></path>
        </symbol>

        <symbol id="icon-category-microwave" viewBox="0 0 32 32">
            <path fill="none" stroke="currentColor" stroke-linejoin="round" stroke-linecap="round" stroke-miterlimit="4" stroke-width="2" d="M26.667 5.333h-21.333c-1.473 0-2.667 1.194-2.667 2.667v14.667c0 1.473 1.194 2.667 2.667 2.667h21.333c1.473 0 2.667-1.194 2.667-2.667v-14.667c0-1.473-1.194-2.667-2.667-2.667z"></path>
            <path fill="none" stroke="currentColor" stroke-linejoin="round" stroke-linecap="round" stroke-miterlimit="4" stroke-width="2" d="M17.333 10.667h-8c-0.736 0-1.333 0.597-1.333 1.333v6.667c0 0.736 0.597 1.333 1.333 1.333h8c0.736 0 1.333-0.597 1.333-1.333v-6.667c0-0.736-0.597-1.333-1.333-1.333zM24 10.667v9.333M8 25.333v2.667M24 25.333v2.667"></path>
        </symbol>

        <symbol id="icon-refrigerator" viewBox="0 0 32 32">
            <path d="M23.667 9.333c0-0.265-0.105-0.52-0.293-0.707s-0.442-0.293-0.707-0.293c-0.265 0-0.52 0.105-0.707 0.293s-0.293 0.442-0.293 0.707v2.667c0 0.265 0.105 0.52 0.293 0.707s0.442 0.293 0.707 0.293c0.265 0 0.52-0.105 0.707-0.293s0.293-0.442 0.293-0.707v-2.667zM23.667 18.667c0-0.265-0.105-0.52-0.293-0.707s-0.442-0.293-0.707-0.293c-0.265 0-0.52 0.105-0.707 0.293s-0.293 0.442-0.293 0.707v2.667c0 0.265 0.105 0.52 0.293 0.707s0.442 0.293 0.707 0.293c0.265 0 0.52-0.105 0.707-0.293s0.293-0.442 0.293-0.707v-2.667z"></path>
            <path d="M16.075 1.667h-0.149c-2.451 0-4.392 0-5.911 0.204-1.563 0.211-2.828 0.653-3.827 1.651-0.997 0.999-1.44 2.264-1.651 3.827-0.204 1.52-0.204 3.46-0.204 5.911v4.149c0 2.451 0 4.392 0.204 5.911 0.211 1.563 0.653 2.828 1.651 3.827 0.613 0.612 1.325 1.015 2.145 1.284v0.904c0 0.552 0.448 1 1 1h1.333c0.265 0 0.52-0.105 0.707-0.293s0.293-0.442 0.293-0.707v-0.395c1.209 0.061 2.62 0.061 4.259 0.061h0.149c1.64 0 3.049 0 4.259-0.061v0.395c0 0.552 0.448 1 1 1h1.333c0.265 0 0.52-0.105 0.707-0.293s0.293-0.442 0.293-0.707v-0.904c0.82-0.269 1.533-0.672 2.145-1.284 0.997-0.999 1.44-2.264 1.651-3.827 0.204-1.52 0.204-3.46 0.204-5.911v-4.148c0-2.451 0-4.392-0.204-5.911-0.211-1.563-0.653-2.828-1.651-3.827-0.999-0.997-2.264-1.44-3.827-1.651-1.52-0.204-3.46-0.204-5.911-0.204zM7.603 4.936c0.564-0.564 1.337-0.903 2.679-1.083 1.371-0.184 3.176-0.187 5.719-0.187s4.349 0.003 5.72 0.187c1.34 0.18 2.113 0.519 2.677 1.083s0.903 1.337 1.083 2.679c0.184 1.371 0.187 3.176 0.187 5.719v1h-19.333v-1c0-2.543 0.003-4.348 0.187-5.72 0.18-1.34 0.519-2.113 1.083-2.677zM6.333 16.333h19.333v1c0 2.543-0.003 4.349-0.187 5.72-0.18 1.34-0.519 2.113-1.083 2.677s-1.337 0.903-2.679 1.083c-1.371 0.184-3.176 0.187-5.719 0.187s-4.348-0.003-5.72-0.187c-1.34-0.18-2.113-0.519-2.677-1.083s-0.903-1.337-1.083-2.679c-0.184-1.369-0.187-3.176-0.187-5.719v-1z"></path>
        </symbol>

        <symbol id="icon-category-bathroom" viewBox="0 0 32 32">
            <path d="M8 29.5c0 0.828-0.672 1.5-1.5 1.5s-1.5-0.672-1.5-1.5v0c0-0.828 0.672-1.5 1.5-1.5s1.5 0.672 1.5 1.5v0zM10.5 24c-0.828 0-1.5 0.672-1.5 1.5s0.672 1.5 1.5 1.5v0c0.828 0 1.5-0.672 1.5-1.5s-0.672-1.5-1.5-1.5v0zM2.5 24c-0.828 0-1.5 0.672-1.5 1.5 0 0.414 0.168 0.789 0.439 1.061v0c0.271 0.271 0.646 0.439 1.061 0.439 0.828 0 1.5-0.672 1.5-1.5s-0.672-1.5-1.5-1.5v0zM6.5 20c-0.828 0-1.5 0.672-1.5 1.5 0 0.414 0.168 0.789 0.439 1.061v0c0.271 0.271 0.646 0.439 1.061 0.439 0.828 0 1.5-0.672 1.5-1.5s-0.672-1.5-1.5-1.5v0zM32 5c-0 0.552-0.448 1-1 1h-3.586l-3.481 3.482-2.707 15.849c-0.165 0.953-0.985 1.668-1.972 1.668-0.552 0-1.052-0.224-1.414-0.586l-12.25-12.25c-0.362-0.362-0.586-0.862-0.586-1.414 0-0.218 0.035-0.428 0.1-0.625l-0.004 0.014c0.232-0.708 0.83-1.235 1.565-1.361l0.012-0.002 15.842-2.709 3.775-3.775c0.181-0.181 0.431-0.292 0.707-0.292 0 0 0 0 0.001 0h4c0.552 0 1 0.448 1 1v0zM21.776 10.224l-14.776 2.526 12.25 12.25 2.526-14.776z"></path>
        </symbol>

        <symbol id="icon-category-refrigerator" viewBox="0 0 32 32">
            <path d="M23.667 9.333c-0-0.552-0.448-1-1-1-0.276 0-0.526 0.112-0.707 0.293v0c-0.181 0.181-0.293 0.431-0.293 0.707 0 0 0 0 0 0v0 2.667c0 0 0 0 0 0 0 0.552 0.448 1 1 1 0.276 0 0.526-0.112 0.707-0.293v0c0.181-0.181 0.293-0.431 0.293-0.707v0-2.667zM23.667 18.667c-0-0.552-0.448-1-1-1h-0c-0.552 0-1 0.448-1 1v0 2.667c0 0 0 0 0 0 0 0.552 0.448 1 1 1 0 0 0 0 0 0h-0c0 0 0 0 0 0 0.552 0 1-0.448 1-1 0-0 0-0 0-0v0-2.667z"></path>
            <path d="M16.075 1.667h-0.149c-2.451 0-4.392 0-5.911 0.204-1.563 0.211-2.828 0.653-3.827 1.651-0.997 0.999-1.44 2.264-1.651 3.827-0.204 1.52-0.204 3.46-0.204 5.911v4.149c0 2.451 0 4.392 0.204 5.911 0.211 1.563 0.653 2.828 1.651 3.827 0.613 0.612 1.325 1.015 2.145 1.284v0.904c0 0.552 0.448 1 1 1h1.333c0.552-0 1-0.448 1-1v-0.395c1.209 0.061 2.62 0.061 4.259 0.061h0.149c1.64 0 3.049 0 4.259-0.061v0.395c0 0.552 0.448 1 1 1h1.333c0.552-0 1-0.448 1-1v-0.904c0.82-0.269 1.533-0.672 2.145-1.284 0.997-0.999 1.44-2.264 1.651-3.827 0.204-1.52 0.204-3.46 0.204-5.911v-4.148c0-2.451 0-4.392-0.204-5.911-0.211-1.563-0.653-2.828-1.651-3.827-0.999-0.997-2.264-1.44-3.827-1.651-1.52-0.204-3.46-0.204-5.911-0.204zM7.603 4.936c0.564-0.564 1.337-0.903 2.679-1.083 1.371-0.184 3.176-0.187 5.719-0.187s4.349 0.003 5.72 0.187c1.34 0.18 2.113 0.519 2.677 1.083s0.903 1.337 1.083 2.679c0.184 1.371 0.187 3.176 0.187 5.719v1h-19.333v-1c0-2.543 0.003-4.348 0.187-5.72 0.18-1.34 0.519-2.113 1.083-2.677zM6.333 16.333h19.333v1c0 2.543-0.003 4.349-0.187 5.72-0.18 1.34-0.519 2.113-1.083 2.677s-1.337 0.903-2.679 1.083c-1.371 0.184-3.176 0.187-5.719 0.187s-4.348-0.003-5.72-0.187c-1.34-0.18-2.113-0.519-2.677-1.083s-0.903-1.337-1.083-2.679c-0.184-1.369-0.187-3.176-0.187-5.719v-1z"></path>
        </symbol>

        <symbol id="icon-category-tv" viewBox="0 0 32 32">
            <path d="M0 8s0-4 4-4h24s4 0 4 4v12s0 4-4 4h-8c0 1.333 0.167 2.333 0.5 3h1.5c0.546 0.008 0.986 0.453 0.986 1s-0.44 0.992-0.985 1h-12.001c-0.552-0-1-0.448-1-1 0-0.276 0.112-0.526 0.293-0.707v0c0.181-0.181 0.431-0.293 0.707-0.293h1.5c0.333-0.667 0.5-1.667 0.5-3h-8s-4 0-4-4v-12zM2.796 6.29c-0.218 0.153-0.391 0.357-0.504 0.595l-0.004 0.009c-0.161 0.329-0.264 0.713-0.288 1.118l-0 0.008v11.98c0 0.65 0.156 1.004 0.29 1.204 0.14 0.208 0.341 0.377 0.604 0.508 0.314 0.154 0.68 0.256 1.066 0.285l0.010 0.001 0.050 0.002h23.98c0.65 0 1.004-0.156 1.204-0.29 0.218-0.153 0.391-0.357 0.504-0.595l0.004-0.009c0.154-0.314 0.256-0.68 0.285-1.066l0.001-0.010 0.002-0.050v-11.98c0-0.65-0.156-1.004-0.29-1.204-0.153-0.218-0.357-0.391-0.595-0.504l-0.009-0.004c-0.329-0.161-0.713-0.264-1.118-0.288l-0.008-0h-23.98c-0.65 0-1.004 0.156-1.204 0.29z"></path>
        </symbol>

        <symbol id="icon-category-ac" viewBox="0 0 32 32">
            <path d="M25 4c-0 0-0 0-0 0-2.761 0-5 2.239-5 5 0 0 0 0 0 0v0c-0 0.552-0.448 1-1 1-0.276 0-0.526-0.112-0.707-0.293v0c-0.181-0.181-0.293-0.431-0.293-0.707v0c0-0 0-0 0-0 0-3.866 3.134-7 7-7 0.483 0 0.955 0.049 1.411 0.142l-0.045-0.008c2.779 0.567 4.933 2.721 5.492 5.455l0.008 0.045c0.086 0.411 0.134 0.882 0.134 1.365 0 3.866-3.134 7-7 7h-24c-0.552-0-1-0.448-1-1 0-0.276 0.112-0.526 0.293-0.707v0c0.181-0.181 0.431-0.293 0.707-0.293h24c0 0 0 0 0 0 2.761 0 5-2.238 5-5 0-0 0-0 0-0v0c0-2.761-2.239-5-5-5v0zM11 6c-1.105 0-2 0.895-2 2v0c0 0.552-0.448 1-1 1s-1-0.448-1-1v0c0-2.209 1.791-4 4-4s4 1.791 4 4c0 2.209-1.791 4-4 4v0h-10c-0.552-0-1-0.448-1-1 0-0.276 0.112-0.526 0.293-0.707v0c0.181-0.181 0.431-0.293 0.707-0.293h10c1.105 0 2-0.895 2-2s-0.895-2-2-2v0zM0 19c0-0.552 0.448-1 1-1v0h20.084c0 0 0 0 0 0 3.314 0 6 2.686 6 6 0 1.657-0.672 3.157-1.758 4.243v0c-1.086 1.086-2.586 1.757-4.243 1.757-2.071 0-3.897-1.049-4.975-2.645l-0.014-0.021c-0.633-0.936-1.011-2.091-1.011-3.333 0 0 0 0 0 0v0c0.008-0.546 0.453-0.986 1-0.986s0.992 0.44 1 0.985v0.001c0 1.657 1.007 3.078 2.443 3.686l0.026 0.010c0.452 0.193 0.979 0.305 1.531 0.305 1.933 0 3.546-1.371 3.918-3.194l0.004-0.026c0.049-0.235 0.077-0.504 0.077-0.78 0-2.209-1.791-4-4-4h-20.084c-0.552-0-1-0.448-1-1v0z"></path>
        </symbol>

        <symbol id="icon-category-engine" viewBox="0 0 32 32">
            <path d="M6 5c0-0.552 0.448-1 1-1v0h10c0 0 0 0 0 0 0.552 0 1 0.448 1 1 0 0 0 0 0 0v-0 10c0 0 0 0 0 0 0 0.552-0.448 1-1 1-0 0-0 0-0 0h-10c-0.552 0-1-0.448-1-1v0-10z"></path>
            <path d="M2 4c0-2.209 1.791-4 4-4v0h12c2.209 0 4 1.791 4 4v16c1.061 0 2.078 0.421 2.828 1.172 0.724 0.724 1.171 1.724 1.172 2.828v0 1c0 0.265 0.105 0.52 0.293 0.707 0.181 0.181 0.431 0.293 0.707 0.293s0.526-0.112 0.707-0.293v0c0.181-0.181 0.293-0.431 0.293-0.707 0-0 0-0 0-0v0-9h-1c-0 0-0 0-0 0-0.552 0-1-0.448-1-1 0-0 0-0 0-0v0-6.25c0-0 0-0 0-0 0-0.552 0.448-1 1-1 0 0 0 0 0 0h2.99c-0.022-0.952-0.106-1.788-0.402-2.444-0.163-0.387-0.436-0.701-0.78-0.911l-0.008-0.005c-0.368-0.22-0.928-0.39-1.8-0.39-0 0-0 0-0 0-0.552 0-1-0.448-1-1 0-0 0-0 0-0v0c0-0 0-0 0-0 0-0.552 0.448-1 1-1 0 0 0 0 0 0h-0c1.128-0.003 2.069 0.221 2.824 0.672 0.766 0.456 1.268 1.102 1.588 1.814 0.59 1.31 0.588 2.93 0.588 4.162v6.35c0 0.001 0 0.001 0 0.002 0 0.552-0.448 1-1 1 0 0 0 0 0 0h-1v9c0 0.796-0.316 1.559-0.879 2.121-0.543 0.543-1.293 0.879-2.121 0.879s-1.578-0.336-2.121-0.879v0c-0.543-0.543-0.879-1.293-0.879-2.121 0-0 0-0 0-0v0-1c-0-1.105-0.895-2-2-2v0 8h1c0 0 0 0 0 0 0.276 0 0.526 0.112 0.707 0.293v0c0.181 0.181 0.293 0.431 0.293 0.707s-0.112 0.526-0.293 0.707v0c-0.181 0.181-0.431 0.293-0.707 0.293-0 0-0 0-0 0h-22c-0 0-0 0-0 0-0.552 0-1-0.448-1-1 0-0 0-0 0-0v0c0-0 0-0 0-0 0-0.552 0.448-1 1-1 0 0 0 0 0 0h1v-26zM20 4c0-1.105-0.895-2-2-2v0h-12c-1.105 0-2 0.895-2 2v0 26h16v-26z"></path>
        </symbol>

        <symbol id="icon-category-radio" viewBox="0 0 32 32">
            <path d="M14 5c0-0.552 0.448-1 1-1v0h14c0 0 0 0 0 0 0.552 0 1 0.448 1 1 0 0 0 0 0 0v-0 2c0 0 0 0 0 0 0 0.552-0.448 1-1 1-0 0-0 0-0 0h-14c-0.552 0-1-0.448-1-1v0-2zM0 24c0-3.314 2.686-6 6-6s6 2.686 6 6v0c0 3.314-2.686 6-6 6s-6-2.686-6-6v0zM14 21c0-0 0-0 0-0 0-0.552 0.448-1 1-1 0 0 0 0 0 0h14c0 0 0 0 0 0 0.276 0 0.526 0.112 0.707 0.293v0c0.181 0.181 0.293 0.431 0.293 0.707 0 0 0 0 0 0v0 2c0 0 0 0 0 0 0 0.276-0.112 0.526-0.293 0.707v0c-0.181 0.181-0.431 0.293-0.707 0.293-0 0-0 0-0 0h-14c-0 0-0 0-0 0-0.552 0-1-0.448-1-1 0-0 0-0 0-0v0-2zM14 11c0-0.552 0.448-1 1-1v0h10c0 0 0 0 0 0 0.552 0 1 0.448 1 1 0 0 0 0 0 0v-0c0 0 0 0 0 0 0 0.552-0.448 1-1 1-0 0-0 0-0 0h-10c-0.552 0-1-0.448-1-1v0zM14 27c0-0 0-0 0-0 0-0.552 0.448-1 1-1 0 0 0 0 0 0h10c0 0 0 0 0 0 0.276 0 0.526 0.112 0.707 0.293v0c0.181 0.181 0.293 0.431 0.293 0.707s-0.112 0.526-0.293 0.707v0c-0.181 0.181-0.431 0.293-0.707 0.293-0 0-0 0-0 0h-10c-0 0-0 0-0 0-0.552 0-1-0.448-1-1 0-0 0-0 0-0v0zM6 2c-3.314 0-6 2.686-6 6s2.686 6 6 6v0c3.314 0 6-2.686 6-6s-2.686-6-6-6v0zM6 11c-1.657 0-3-1.343-3-3s1.343-3 3-3v0c1.657 0 3 1.343 3 3s-1.343 3-3 3v0z"></path>
        </symbol>
    </defs>
</svg>
