<svg aria-hidden="true" style="position: absolute; width: 0; height: 0; overflow: hidden;" version="1.1" xmlns="http://www.w3.org/2000/svg"
     xmlns:xlink="http://www.w3.org/1999/xlink">
    <defs>
        <symbol id="icon-tv" viewBox="0 0 16 32">
            <path d="M0 4c0 0 0-2 2-2h12c0 0 2 0 2 2v6c0 0 0 2-2 2h-4c0 0.667 0.083 1.167 0.25 1.5h0.75c0.133 0 0.26 0.053 0.354 0.146s0.146 0.221 0.146 0.354c0 0.133-0.053 0.26-0.146 0.354s-0.221 0.146-0.354 0.146h-6c-0.133 0-0.26-0.053-0.354-0.146s-0.146-0.221-0.146-0.354c0-0.133 0.053-0.26 0.146-0.354s0.221-0.146 0.354-0.146h0.75c0.167-0.333 0.25-0.833 0.25-1.5h-4c0 0-2 0-2-2v-6zM1.398 3.145c-0.11 0.077-0.197 0.181-0.254 0.302-0.084 0.176-0.133 0.368-0.144 0.563v5.99c0 0.325 0.078 0.502 0.145 0.602 0.070 0.104 0.171 0.189 0.302 0.254 0.169 0.081 0.351 0.129 0.538 0.143l0.025 0.001h11.99c0.325 0 0.502-0.078 0.602-0.145 0.11-0.077 0.197-0.181 0.254-0.302 0.081-0.169 0.129-0.351 0.143-0.538l0.001-0.025v-5.99c0-0.325-0.078-0.502-0.145-0.602-0.077-0.11-0.181-0.197-0.302-0.254-0.177-0.084-0.368-0.133-0.563-0.144h-11.99c-0.325 0-0.502 0.078-0.602 0.145z"></path>
            <path d="M2.966 23.938v-0.756h4.503v0.756h-1.815v5.063h-0.875v-5.063h-1.813zM8.932 23.182l1.619 4.739h0.065l1.619-4.739h0.949l-2.094 5.818h-1.014l-2.094-5.818h0.949z"></path>
        </symbol>

        <symbol id="icon-bathroom" viewBox="0 0 38 32">
            <path d="M15 14.75c0 0.148-0.044 0.293-0.126 0.417s-0.2 0.219-0.337 0.276-0.288 0.072-0.433 0.043c-0.146-0.029-0.279-0.1-0.384-0.205s-0.176-0.239-0.205-0.384c-0.029-0.145-0.014-0.296 0.043-0.433s0.153-0.254 0.276-0.337c0.123-0.082 0.268-0.126 0.417-0.126 0.199 0 0.39 0.079 0.53 0.22s0.22 0.331 0.22 0.53zM16.25 12c-0.148 0-0.293 0.044-0.417 0.126s-0.219 0.2-0.276 0.337-0.072 0.288-0.043 0.433c0.029 0.146 0.1 0.279 0.205 0.384s0.239 0.176 0.384 0.205c0.145 0.029 0.296 0.014 0.433-0.043s0.254-0.153 0.337-0.276c0.082-0.123 0.126-0.268 0.126-0.417 0-0.199-0.079-0.39-0.22-0.53s-0.331-0.22-0.53-0.22zM12.25 12c-0.148 0-0.293 0.044-0.417 0.126s-0.219 0.2-0.276 0.337c-0.057 0.137-0.072 0.288-0.043 0.433s0.1 0.279 0.205 0.384c0.105 0.105 0.239 0.176 0.384 0.205s0.296 0.014 0.433-0.043 0.254-0.153 0.337-0.276c0.082-0.123 0.126-0.268 0.126-0.417 0-0.199-0.079-0.39-0.22-0.53s-0.331-0.22-0.53-0.22zM14.25 10c-0.148 0-0.293 0.044-0.417 0.126s-0.219 0.2-0.276 0.337c-0.057 0.137-0.072 0.288-0.043 0.433s0.1 0.279 0.205 0.384c0.105 0.105 0.239 0.176 0.384 0.205s0.296 0.014 0.433-0.043 0.254-0.153 0.337-0.276c0.082-0.123 0.126-0.268 0.126-0.417 0-0.199-0.079-0.39-0.22-0.53s-0.331-0.22-0.53-0.22zM27 2.5c0 0.133-0.053 0.26-0.146 0.354s-0.221 0.146-0.354 0.146h-1.793l-1.741 1.741-1.354 7.924c-0.030 0.181-0.11 0.35-0.23 0.489s-0.276 0.242-0.451 0.298c-0.175 0.056-0.362 0.063-0.54 0.019s-0.341-0.135-0.471-0.265l-6.125-6.125c-0.13-0.13-0.222-0.293-0.265-0.472s-0.037-0.366 0.020-0.541c0.056-0.175 0.159-0.331 0.299-0.451s0.309-0.2 0.49-0.23l7.921-1.354 1.887-1.888c0.046-0.046 0.102-0.083 0.162-0.108s0.126-0.038 0.191-0.038h2c0.133 0 0.26 0.053 0.354 0.146s0.146 0.221 0.146 0.354zM21.888 5.112l-7.388 1.263 6.125 6.125 1.263-7.388z"></path>
            <path d="M1.131 29v-5.818h2.131c0.413 0 0.755 0.068 1.026 0.205 0.271 0.134 0.473 0.317 0.608 0.548 0.134 0.229 0.202 0.488 0.202 0.776 0 0.242-0.045 0.447-0.134 0.614-0.089 0.165-0.208 0.297-0.358 0.398-0.148 0.099-0.311 0.17-0.489 0.216v0.057c0.193 0.009 0.382 0.072 0.565 0.188 0.186 0.114 0.339 0.276 0.46 0.486s0.182 0.466 0.182 0.767c0 0.297-0.070 0.564-0.21 0.801-0.138 0.235-0.352 0.421-0.642 0.56-0.29 0.136-0.66 0.205-1.111 0.205h-2.23zM2.009 28.247h1.267c0.42 0 0.722-0.081 0.903-0.244s0.273-0.366 0.273-0.611c0-0.184-0.046-0.352-0.139-0.506s-0.225-0.276-0.398-0.366c-0.17-0.091-0.373-0.136-0.608-0.136h-1.298v1.864zM2.009 25.699h1.176c0.197 0 0.374-0.038 0.531-0.114 0.159-0.076 0.285-0.182 0.378-0.318 0.095-0.138 0.142-0.301 0.142-0.489 0-0.241-0.084-0.442-0.253-0.605s-0.427-0.244-0.776-0.244h-1.199v1.77zM7.527 29.097c-0.277 0-0.526-0.051-0.75-0.153-0.223-0.104-0.401-0.255-0.531-0.452-0.129-0.197-0.193-0.438-0.193-0.724 0-0.246 0.047-0.449 0.142-0.608s0.223-0.285 0.384-0.378c0.161-0.093 0.341-0.163 0.54-0.21s0.402-0.083 0.608-0.108c0.261-0.030 0.473-0.055 0.636-0.074 0.163-0.021 0.281-0.054 0.355-0.099s0.111-0.119 0.111-0.222v-0.020c0-0.248-0.070-0.44-0.21-0.577-0.138-0.136-0.345-0.205-0.619-0.205-0.286 0-0.511 0.063-0.676 0.19-0.163 0.125-0.276 0.264-0.338 0.418l-0.798-0.182c0.095-0.265 0.233-0.479 0.415-0.642 0.184-0.165 0.395-0.284 0.634-0.358 0.239-0.076 0.49-0.114 0.753-0.114 0.174 0 0.359 0.021 0.554 0.063 0.197 0.040 0.381 0.114 0.551 0.222 0.172 0.108 0.313 0.262 0.423 0.463 0.11 0.199 0.165 0.457 0.165 0.776v2.898h-0.83v-0.597h-0.034c-0.055 0.11-0.137 0.218-0.247 0.324s-0.251 0.194-0.423 0.264c-0.172 0.070-0.379 0.105-0.619 0.105zM7.712 28.415c0.235 0 0.436-0.046 0.602-0.139 0.169-0.093 0.296-0.214 0.383-0.364 0.089-0.152 0.133-0.313 0.133-0.486v-0.563c-0.030 0.030-0.089 0.059-0.176 0.085-0.085 0.025-0.183 0.046-0.293 0.065-0.11 0.017-0.217 0.033-0.321 0.048-0.104 0.013-0.191 0.025-0.261 0.034-0.165 0.021-0.315 0.056-0.452 0.105-0.135 0.049-0.242 0.12-0.324 0.213-0.080 0.091-0.119 0.212-0.119 0.364 0 0.21 0.078 0.369 0.233 0.477 0.155 0.106 0.353 0.159 0.594 0.159zM12.809 24.636v0.682h-2.384v-0.682h2.384zM11.064 23.591h0.849v4.128c0 0.165 0.025 0.289 0.074 0.372 0.049 0.081 0.113 0.137 0.19 0.168 0.080 0.028 0.166 0.043 0.258 0.043 0.068 0 0.128-0.005 0.179-0.014s0.091-0.017 0.119-0.023l0.153 0.702c-0.049 0.019-0.119 0.038-0.21 0.057-0.091 0.021-0.205 0.032-0.341 0.034-0.223 0.004-0.432-0.036-0.625-0.119s-0.349-0.212-0.469-0.386c-0.119-0.174-0.179-0.393-0.179-0.656v-4.304zM14.651 26.409v2.591h-0.849v-5.818h0.838v2.165h0.054c0.102-0.235 0.259-0.421 0.469-0.56s0.485-0.207 0.824-0.207c0.299 0 0.561 0.062 0.784 0.185 0.225 0.123 0.4 0.307 0.523 0.551 0.125 0.242 0.188 0.545 0.188 0.909v2.776h-0.849v-2.673c0-0.32-0.082-0.568-0.247-0.744-0.165-0.178-0.394-0.267-0.688-0.267-0.201 0-0.381 0.043-0.54 0.128-0.157 0.085-0.281 0.21-0.372 0.375-0.089 0.163-0.133 0.36-0.133 0.591zM18.574 29v-4.364h0.821v0.693h0.045c0.080-0.235 0.22-0.419 0.42-0.554 0.203-0.136 0.432-0.205 0.688-0.205 0.053 0 0.116 0.002 0.188 0.006 0.074 0.004 0.132 0.009 0.173 0.014v0.813c-0.034-0.009-0.095-0.020-0.182-0.031-0.087-0.013-0.174-0.020-0.261-0.020-0.201 0-0.38 0.043-0.537 0.128-0.155 0.083-0.278 0.2-0.369 0.349-0.091 0.148-0.136 0.316-0.136 0.506v2.665h-0.849zM23.287 29.088c-0.409 0-0.766-0.094-1.071-0.281s-0.542-0.45-0.71-0.787c-0.169-0.337-0.253-0.731-0.253-1.182 0-0.453 0.084-0.848 0.253-1.188s0.405-0.602 0.71-0.79c0.305-0.188 0.662-0.281 1.071-0.281s0.766 0.094 1.071 0.281c0.305 0.188 0.542 0.451 0.71 0.79s0.253 0.735 0.253 1.188c0 0.451-0.084 0.845-0.253 1.182s-0.405 0.599-0.71 0.787c-0.305 0.188-0.662 0.281-1.071 0.281zM23.289 28.375c0.265 0 0.485-0.070 0.659-0.21s0.303-0.327 0.386-0.56c0.085-0.233 0.128-0.49 0.128-0.77 0-0.278-0.043-0.534-0.128-0.767-0.083-0.235-0.212-0.423-0.386-0.565s-0.394-0.213-0.659-0.213c-0.267 0-0.489 0.071-0.665 0.213-0.174 0.142-0.304 0.331-0.389 0.565-0.083 0.233-0.125 0.489-0.125 0.767 0 0.28 0.042 0.537 0.125 0.77 0.085 0.233 0.215 0.419 0.389 0.56 0.176 0.14 0.398 0.21 0.665 0.21zM28.067 29.088c-0.409 0-0.766-0.094-1.071-0.281s-0.542-0.45-0.71-0.787c-0.169-0.337-0.253-0.731-0.253-1.182 0-0.453 0.084-0.848 0.253-1.188s0.405-0.602 0.71-0.79c0.305-0.188 0.662-0.281 1.071-0.281s0.766 0.094 1.071 0.281c0.305 0.188 0.542 0.451 0.71 0.79s0.253 0.735 0.253 1.188c0 0.451-0.084 0.845-0.253 1.182s-0.405 0.599-0.71 0.787c-0.305 0.188-0.662 0.281-1.071 0.281zM28.070 28.375c0.265 0 0.485-0.070 0.659-0.21s0.303-0.327 0.386-0.56c0.085-0.233 0.128-0.49 0.128-0.77 0-0.278-0.043-0.534-0.128-0.767-0.083-0.235-0.212-0.423-0.386-0.565s-0.394-0.213-0.659-0.213c-0.267 0-0.489 0.071-0.665 0.213-0.174 0.142-0.304 0.331-0.389 0.565-0.083 0.233-0.125 0.489-0.125 0.767 0 0.28 0.042 0.537 0.125 0.77 0.085 0.233 0.215 0.419 0.389 0.56 0.176 0.14 0.398 0.21 0.665 0.21zM31.009 29v-4.364h0.815v0.71h0.054c0.091-0.241 0.24-0.428 0.446-0.563 0.206-0.136 0.454-0.205 0.741-0.205 0.292 0 0.536 0.068 0.733 0.205 0.199 0.136 0.346 0.324 0.44 0.563h0.045c0.104-0.233 0.27-0.419 0.497-0.557 0.227-0.14 0.498-0.21 0.813-0.21 0.396 0 0.719 0.124 0.969 0.372 0.252 0.248 0.378 0.622 0.378 1.122v2.926h-0.849v-2.847c0-0.295-0.081-0.509-0.242-0.642s-0.353-0.199-0.577-0.199c-0.276 0-0.492 0.085-0.645 0.256-0.153 0.169-0.23 0.385-0.23 0.651v2.781h-0.847v-2.901c0-0.237-0.074-0.427-0.222-0.571s-0.34-0.216-0.577-0.216c-0.161 0-0.31 0.043-0.446 0.128-0.135 0.083-0.243 0.2-0.327 0.349-0.081 0.15-0.122 0.323-0.122 0.52v2.69h-0.849z"></path>
        </symbol>

        <symbol id="icon-van" viewBox="0 0 16 32">
            <path d="M6 1h-5v14h5v-14zM15 1h-5v5h5v-5zM15 10v5h-5v-5h5zM0 1c0-0.265 0.105-0.52 0.293-0.707s0.442-0.293 0.707-0.293h5c0.265 0 0.52 0.105 0.707 0.293s0.293 0.442 0.293 0.707v14c0 0.265-0.105 0.52-0.293 0.707s-0.442 0.293-0.707 0.293h-5c-0.265 0-0.52-0.105-0.707-0.293s-0.293-0.442-0.293-0.707v-14zM9 1c0-0.265 0.105-0.52 0.293-0.707s0.442-0.293 0.707-0.293h5c0.265 0 0.52 0.105 0.707 0.293s0.293 0.442 0.293 0.707v5c0 0.265-0.105 0.52-0.293 0.707s-0.442 0.293-0.707 0.293h-5c-0.265 0-0.52-0.105-0.707-0.293s-0.293-0.442-0.293-0.707v-5zM10 9c-0.265 0-0.52 0.105-0.707 0.293s-0.293 0.442-0.293 0.707v5c0 0.265 0.105 0.52 0.293 0.707s0.442 0.293 0.707 0.293h5c0.265 0 0.52-0.105 0.707-0.293s0.293-0.442 0.293-0.707v-5c0-0.265-0.105-0.52-0.293-0.707s-0.442-0.293-0.707-0.293h-5z"></path>
            <path d="M1.934 23.182l1.619 4.739h0.065l1.619-4.739h0.949l-2.094 5.818h-1.014l-2.094-5.818h0.949zM7.759 29.097c-0.277 0-0.527-0.051-0.75-0.153-0.223-0.104-0.401-0.255-0.531-0.452-0.129-0.197-0.193-0.438-0.193-0.724 0-0.246 0.047-0.449 0.142-0.608s0.223-0.285 0.383-0.378c0.161-0.093 0.341-0.163 0.54-0.21s0.402-0.083 0.608-0.108c0.261-0.030 0.473-0.055 0.636-0.074 0.163-0.021 0.281-0.054 0.355-0.099s0.111-0.119 0.111-0.222v-0.020c0-0.248-0.070-0.44-0.21-0.577-0.138-0.136-0.345-0.205-0.619-0.205-0.286 0-0.511 0.063-0.676 0.19-0.163 0.125-0.276 0.264-0.338 0.418l-0.798-0.182c0.095-0.265 0.233-0.479 0.415-0.642 0.184-0.165 0.395-0.284 0.633-0.358 0.239-0.076 0.49-0.114 0.753-0.114 0.174 0 0.359 0.021 0.554 0.063 0.197 0.040 0.381 0.114 0.551 0.222 0.172 0.108 0.313 0.262 0.423 0.463 0.11 0.199 0.165 0.457 0.165 0.776v2.898h-0.83v-0.597h-0.034c-0.055 0.11-0.137 0.218-0.247 0.324s-0.251 0.194-0.423 0.264c-0.172 0.070-0.379 0.105-0.619 0.105zM7.944 28.415c0.235 0 0.436-0.046 0.602-0.139 0.169-0.093 0.296-0.214 0.384-0.364 0.089-0.152 0.133-0.313 0.133-0.486v-0.563c-0.030 0.030-0.089 0.059-0.176 0.085-0.085 0.025-0.183 0.046-0.293 0.065-0.11 0.017-0.217 0.033-0.321 0.048-0.104 0.013-0.191 0.025-0.261 0.034-0.165 0.021-0.315 0.056-0.452 0.105-0.134 0.049-0.242 0.12-0.324 0.213-0.080 0.091-0.119 0.212-0.119 0.364 0 0.21 0.078 0.369 0.233 0.477 0.155 0.106 0.353 0.159 0.594 0.159zM11.853 26.409v2.591h-0.849v-4.364h0.815v0.71h0.054c0.1-0.231 0.258-0.417 0.472-0.557 0.216-0.14 0.488-0.21 0.815-0.21 0.297 0 0.558 0.063 0.781 0.188 0.223 0.123 0.397 0.307 0.52 0.551s0.185 0.546 0.185 0.906v2.776h-0.849v-2.673c0-0.316-0.082-0.563-0.247-0.741-0.165-0.18-0.391-0.27-0.679-0.27-0.197 0-0.372 0.043-0.526 0.128-0.152 0.085-0.272 0.21-0.361 0.375-0.087 0.163-0.131 0.36-0.131 0.591z"></path>
        </symbol>

        <symbol id="icon-fully" viewBox="0 0 29 32">
            <path d="M9.455 1.818c0-0.289 0.115-0.567 0.32-0.771s0.482-0.32 0.771-0.32h2.182c0.289 0 0.567 0.115 0.771 0.32s0.32 0.482 0.32 0.771v2.182c0 0.289-0.115 0.567-0.32 0.771s-0.482 0.32-0.771 0.32h-2.182c-0.289 0-0.567-0.115-0.771-0.32s-0.32-0.482-0.32-0.771v-2.182zM10.545 1.455c-0.096 0-0.189 0.038-0.257 0.107s-0.107 0.161-0.107 0.257v2.182c0 0.096 0.038 0.189 0.107 0.257s0.161 0.106 0.257 0.106h2.182c0.096 0 0.189-0.038 0.257-0.106s0.107-0.161 0.107-0.257v-2.182c0-0.096-0.038-0.189-0.107-0.257s-0.161-0.107-0.257-0.107h-2.182zM15.273 1.818c0-0.289 0.115-0.567 0.32-0.771s0.482-0.32 0.771-0.32h2.182c0.289 0 0.567 0.115 0.771 0.32s0.32 0.482 0.32 0.771v2.182c0 0.289-0.115 0.567-0.32 0.771s-0.482 0.32-0.771 0.32h-2.182c-0.289 0-0.567-0.115-0.771-0.32s-0.32-0.482-0.32-0.771v-2.182zM16.364 1.455c-0.096 0-0.189 0.038-0.257 0.107s-0.107 0.161-0.107 0.257v2.182c0 0.096 0.038 0.189 0.107 0.257s0.161 0.106 0.257 0.106h2.182c0.096 0 0.189-0.038 0.257-0.106s0.107-0.161 0.107-0.257v-2.182c0-0.096-0.038-0.189-0.107-0.257s-0.161-0.107-0.257-0.107h-2.182zM9.455 7.636c0-0.289 0.115-0.567 0.32-0.771s0.482-0.32 0.771-0.32h2.182c0.289 0 0.567 0.115 0.771 0.32s0.32 0.482 0.32 0.771v2.182c0 0.289-0.115 0.567-0.32 0.771s-0.482 0.32-0.771 0.32h-2.182c-0.289 0-0.567-0.115-0.771-0.32s-0.32-0.482-0.32-0.771v-2.182zM10.545 7.273c-0.096 0-0.189 0.038-0.257 0.106s-0.107 0.161-0.107 0.257v2.182c0 0.096 0.038 0.189 0.107 0.257s0.161 0.107 0.257 0.107h2.182c0.096 0 0.189-0.038 0.257-0.107s0.107-0.161 0.107-0.257v-2.182c0-0.096-0.038-0.189-0.107-0.257s-0.161-0.106-0.257-0.106h-2.182zM15.273 7.636c0-0.289 0.115-0.567 0.32-0.771s0.482-0.32 0.771-0.32h2.182c0.289 0 0.567 0.115 0.771 0.32s0.32 0.482 0.32 0.771v2.182c0 0.289-0.115 0.567-0.32 0.771s-0.482 0.32-0.771 0.32h-2.182c-0.289 0-0.567-0.115-0.771-0.32s-0.32-0.482-0.32-0.771v-2.182zM16.364 7.273c-0.096 0-0.189 0.038-0.257 0.106s-0.107 0.161-0.107 0.257v2.182c0 0.096 0.038 0.189 0.107 0.257s0.161 0.107 0.257 0.107h2.182c0.096 0 0.189-0.038 0.257-0.107s0.107-0.161 0.107-0.257v-2.182c0-0.096-0.038-0.189-0.107-0.257s-0.161-0.106-0.257-0.106h-2.182z"></path>
            <path d="M8.651 21.091v-4.231h2.624v0.55h-1.986v1.289h1.798v0.547h-1.798v1.845h-0.638zM13.793 19.775v-1.857h0.62v3.174h-0.607v-0.55h-0.033c-0.073 0.169-0.19 0.311-0.351 0.424-0.16 0.112-0.359 0.167-0.597 0.167-0.204 0-0.384-0.045-0.541-0.134-0.156-0.091-0.278-0.225-0.368-0.403-0.088-0.178-0.132-0.397-0.132-0.659v-2.019h0.618v1.944c0 0.216 0.060 0.388 0.18 0.517s0.275 0.192 0.467 0.192c0.116 0 0.231-0.029 0.345-0.087 0.116-0.058 0.211-0.145 0.287-0.262 0.077-0.117 0.115-0.266 0.114-0.446zM15.832 16.86v4.231h-0.618v-4.231h0.618zM17.251 16.86v4.231h-0.618v-4.231h0.618zM18.444 22.281c-0.092 0-0.176-0.008-0.252-0.023-0.076-0.014-0.132-0.029-0.169-0.045l0.149-0.506c0.113 0.030 0.213 0.043 0.302 0.039s0.166-0.037 0.233-0.099c0.069-0.062 0.13-0.163 0.182-0.304l0.076-0.211-1.161-3.215h0.661l0.804 2.463h0.033l0.804-2.463h0.663l-1.308 3.597c-0.061 0.165-0.138 0.305-0.231 0.419-0.094 0.116-0.205 0.202-0.335 0.26s-0.28 0.087-0.45 0.087zM1.337 25.587v4.231h-0.638v-4.231h0.638zM2.805 27.934v1.884h-0.618v-3.174h0.593v0.517h0.039c0.073-0.168 0.187-0.303 0.343-0.405 0.157-0.102 0.355-0.153 0.593-0.153 0.216 0 0.406 0.045 0.568 0.136 0.163 0.090 0.289 0.223 0.378 0.401s0.134 0.397 0.134 0.659v2.019h-0.618v-1.944c0-0.23-0.060-0.41-0.18-0.539-0.12-0.131-0.284-0.196-0.494-0.196-0.143 0-0.271 0.031-0.382 0.093-0.11 0.062-0.198 0.153-0.262 0.273-0.063 0.118-0.095 0.262-0.095 0.43zM7.117 26.645v0.496h-1.734v-0.496h1.734zM5.849 25.884h0.618v3.002c0 0.12 0.018 0.21 0.054 0.271 0.036 0.059 0.082 0.1 0.138 0.122 0.058 0.021 0.12 0.031 0.188 0.031 0.050 0 0.093-0.003 0.13-0.010s0.066-0.012 0.087-0.017l0.112 0.51c-0.036 0.014-0.087 0.028-0.153 0.041-0.066 0.015-0.149 0.023-0.248 0.025-0.163 0.003-0.314-0.026-0.455-0.087s-0.254-0.154-0.341-0.281c-0.087-0.127-0.13-0.286-0.13-0.477v-3.13zM9.105 29.882c-0.313 0-0.582-0.067-0.808-0.2-0.225-0.135-0.398-0.324-0.521-0.568-0.121-0.245-0.182-0.532-0.182-0.862 0-0.325 0.061-0.612 0.182-0.86 0.123-0.248 0.293-0.441 0.512-0.581 0.22-0.139 0.478-0.209 0.773-0.209 0.179 0 0.353 0.030 0.521 0.089s0.319 0.152 0.453 0.279c0.134 0.127 0.239 0.291 0.316 0.494 0.077 0.201 0.116 0.446 0.116 0.733v0.219h-2.523v-0.463h1.917c0-0.163-0.033-0.306-0.099-0.432-0.066-0.127-0.159-0.227-0.279-0.3-0.118-0.073-0.258-0.11-0.417-0.11-0.174 0-0.325 0.043-0.455 0.128-0.128 0.084-0.227 0.194-0.298 0.331-0.069 0.135-0.103 0.282-0.103 0.44v0.362c0 0.212 0.037 0.393 0.112 0.541 0.076 0.149 0.181 0.262 0.316 0.341 0.135 0.077 0.293 0.116 0.473 0.116 0.117 0 0.224-0.017 0.32-0.050 0.096-0.034 0.18-0.085 0.25-0.153s0.124-0.151 0.161-0.25l0.585 0.105c-0.047 0.172-0.131 0.323-0.252 0.452-0.12 0.128-0.271 0.228-0.452 0.3-0.18 0.070-0.386 0.105-0.618 0.105zM12.454 31.074c-0.252 0-0.469-0.033-0.651-0.099-0.18-0.066-0.328-0.154-0.442-0.262s-0.2-0.228-0.256-0.357l0.531-0.219c0.037 0.061 0.087 0.125 0.149 0.192 0.063 0.069 0.149 0.127 0.256 0.176 0.109 0.048 0.249 0.072 0.419 0.072 0.234 0 0.428-0.057 0.581-0.172 0.153-0.113 0.229-0.293 0.229-0.541v-0.624h-0.039c-0.037 0.067-0.091 0.143-0.161 0.225-0.069 0.083-0.164 0.154-0.285 0.215s-0.279 0.091-0.473 0.091c-0.251 0-0.477-0.059-0.678-0.176-0.2-0.118-0.358-0.293-0.475-0.523-0.116-0.231-0.174-0.516-0.174-0.853s0.057-0.627 0.171-0.868c0.116-0.241 0.274-0.426 0.475-0.554 0.201-0.13 0.429-0.194 0.684-0.194 0.197 0 0.356 0.033 0.477 0.099 0.121 0.065 0.216 0.14 0.283 0.227 0.069 0.087 0.122 0.163 0.159 0.229h0.045v-0.514h0.605v3.244c0 0.273-0.063 0.497-0.19 0.672s-0.298 0.304-0.514 0.388c-0.215 0.084-0.457 0.126-0.727 0.126zM12.447 29.258c0.178 0 0.328-0.041 0.45-0.124 0.124-0.084 0.218-0.204 0.281-0.36 0.065-0.157 0.097-0.345 0.097-0.564 0-0.213-0.032-0.401-0.095-0.564s-0.156-0.289-0.279-0.38c-0.123-0.092-0.274-0.138-0.455-0.138-0.186 0-0.341 0.048-0.465 0.145-0.124 0.095-0.218 0.224-0.281 0.388-0.062 0.164-0.093 0.347-0.093 0.55 0 0.208 0.032 0.39 0.095 0.548s0.157 0.28 0.281 0.368c0.125 0.088 0.28 0.132 0.463 0.132zM14.685 29.818v-3.174h0.597v0.504h0.033c0.058-0.171 0.16-0.305 0.306-0.403 0.147-0.099 0.314-0.149 0.5-0.149 0.039 0 0.084 0.001 0.136 0.004 0.054 0.003 0.096 0.006 0.126 0.010v0.591c-0.025-0.007-0.069-0.014-0.132-0.023-0.063-0.010-0.127-0.014-0.19-0.014-0.146 0-0.276 0.031-0.39 0.093-0.113 0.061-0.202 0.145-0.269 0.254-0.066 0.107-0.099 0.23-0.099 0.368v1.938h-0.618zM17.784 29.888c-0.201 0-0.383-0.037-0.545-0.112-0.163-0.076-0.291-0.185-0.386-0.328-0.094-0.143-0.14-0.319-0.14-0.527 0-0.179 0.034-0.326 0.103-0.442s0.162-0.207 0.279-0.275c0.117-0.067 0.248-0.118 0.393-0.153s0.292-0.061 0.442-0.078c0.19-0.022 0.344-0.040 0.463-0.054 0.118-0.015 0.205-0.039 0.258-0.072s0.081-0.087 0.081-0.161v-0.014c0-0.18-0.051-0.32-0.153-0.419-0.101-0.099-0.251-0.149-0.45-0.149-0.208 0-0.372 0.046-0.492 0.138-0.118 0.091-0.2 0.192-0.246 0.304l-0.581-0.132c0.069-0.193 0.169-0.349 0.302-0.467 0.134-0.12 0.287-0.207 0.461-0.26 0.174-0.055 0.356-0.083 0.548-0.083 0.127 0 0.261 0.015 0.403 0.045 0.143 0.029 0.277 0.083 0.401 0.161 0.125 0.078 0.228 0.191 0.308 0.337 0.080 0.145 0.12 0.333 0.12 0.564v2.107h-0.603v-0.434h-0.025c-0.040 0.080-0.1 0.158-0.18 0.236s-0.183 0.141-0.308 0.192c-0.125 0.051-0.276 0.076-0.45 0.076zM17.918 29.393c0.171 0 0.317-0.034 0.438-0.101 0.123-0.067 0.216-0.156 0.279-0.264 0.065-0.11 0.097-0.228 0.097-0.353v-0.409c-0.022 0.022-0.065 0.043-0.128 0.062-0.062 0.018-0.133 0.034-0.213 0.048-0.080 0.012-0.158 0.024-0.233 0.035-0.076 0.010-0.139 0.018-0.19 0.025-0.12 0.015-0.229 0.041-0.329 0.076-0.098 0.036-0.176 0.087-0.236 0.155-0.058 0.066-0.087 0.154-0.087 0.264 0 0.153 0.056 0.269 0.169 0.347 0.113 0.077 0.257 0.116 0.432 0.116zM21.625 26.645v0.496h-1.733v-0.496h1.733zM20.357 25.884h0.618v3.002c0 0.12 0.018 0.21 0.054 0.271 0.036 0.059 0.082 0.1 0.138 0.122 0.058 0.021 0.12 0.031 0.188 0.031 0.050 0 0.093-0.003 0.13-0.010s0.066-0.012 0.087-0.017l0.112 0.51c-0.036 0.014-0.087 0.028-0.153 0.041-0.066 0.015-0.149 0.023-0.248 0.025-0.163 0.003-0.314-0.026-0.455-0.087s-0.254-0.154-0.341-0.281c-0.087-0.127-0.13-0.286-0.13-0.477v-3.13zM23.613 29.882c-0.313 0-0.582-0.067-0.808-0.2-0.224-0.135-0.398-0.324-0.521-0.568-0.121-0.245-0.182-0.532-0.182-0.862 0-0.325 0.061-0.612 0.182-0.86 0.123-0.248 0.293-0.441 0.512-0.581 0.22-0.139 0.478-0.209 0.773-0.209 0.179 0 0.353 0.030 0.521 0.089s0.319 0.152 0.452 0.279c0.134 0.127 0.239 0.291 0.316 0.494 0.077 0.201 0.116 0.446 0.116 0.733v0.219h-2.523v-0.463h1.917c0-0.163-0.033-0.306-0.099-0.432-0.066-0.127-0.159-0.227-0.279-0.3-0.118-0.073-0.258-0.11-0.417-0.11-0.174 0-0.325 0.043-0.455 0.128-0.128 0.084-0.227 0.194-0.298 0.331-0.069 0.135-0.103 0.282-0.103 0.44v0.362c0 0.212 0.037 0.393 0.112 0.541 0.076 0.149 0.181 0.262 0.316 0.341 0.135 0.077 0.293 0.116 0.473 0.116 0.117 0 0.224-0.017 0.32-0.050 0.096-0.034 0.18-0.085 0.25-0.153s0.124-0.151 0.161-0.25l0.585 0.105c-0.047 0.172-0.131 0.323-0.252 0.452-0.12 0.128-0.271 0.228-0.452 0.3-0.18 0.070-0.386 0.105-0.618 0.105zM26.819 29.88c-0.256 0-0.485-0.065-0.686-0.196-0.2-0.132-0.357-0.32-0.471-0.564-0.113-0.245-0.169-0.539-0.169-0.882s0.057-0.636 0.172-0.88c0.116-0.244 0.274-0.43 0.475-0.56s0.429-0.194 0.684-0.194c0.197 0 0.355 0.033 0.475 0.099 0.121 0.065 0.215 0.14 0.281 0.227 0.067 0.087 0.12 0.163 0.157 0.229h0.037v-1.572h0.618v4.231h-0.603v-0.494h-0.052c-0.037 0.068-0.091 0.145-0.161 0.231-0.069 0.087-0.164 0.163-0.285 0.227s-0.278 0.097-0.471 0.097zM26.955 29.353c0.178 0 0.328-0.047 0.45-0.14 0.124-0.095 0.218-0.227 0.281-0.395 0.065-0.168 0.097-0.364 0.097-0.587 0-0.22-0.032-0.413-0.095-0.579s-0.156-0.294-0.279-0.386c-0.123-0.092-0.274-0.138-0.455-0.138-0.186 0-0.341 0.048-0.465 0.145s-0.218 0.228-0.281 0.395c-0.062 0.167-0.093 0.355-0.093 0.564 0 0.212 0.032 0.403 0.095 0.572s0.157 0.304 0.281 0.403c0.125 0.098 0.28 0.147 0.463 0.147z"></path>
        </symbol>

        <symbol id="icon-alcove" viewBox="0 0 26 32">
            <path d="M9 2v2h-2v-2h2zM10 14v-2c0-0.265-0.105-0.52-0.293-0.707s-0.442-0.293-0.707-0.293h-2c-0.265 0-0.52 0.105-0.707 0.293s-0.293 0.442-0.293 0.707v2c0 0.265 0.105 0.52 0.293 0.707s0.442 0.293 0.707 0.293h2c0.265 0 0.52-0.105 0.707-0.293s0.293-0.442 0.293-0.707zM10 9v-2c0-0.265-0.105-0.52-0.293-0.707s-0.442-0.293-0.707-0.293h-2c-0.265 0-0.52 0.105-0.707 0.293s-0.293 0.442-0.293 0.707v2c0 0.265 0.105 0.52 0.293 0.707s0.442 0.293 0.707 0.293h2c0.265 0 0.52-0.105 0.707-0.293s0.293-0.442 0.293-0.707zM10 4v-2c0-0.265-0.105-0.52-0.293-0.707s-0.442-0.293-0.707-0.293h-2c-0.265 0-0.52 0.105-0.707 0.293s-0.293 0.442-0.293 0.707v2c0 0.265 0.105 0.52 0.293 0.707s0.442 0.293 0.707 0.293h2c0.265 0 0.52-0.105 0.707-0.293s0.293-0.442 0.293-0.707zM15 14v-2c0-0.265-0.105-0.52-0.293-0.707s-0.442-0.293-0.707-0.293h-2c-0.265 0-0.52 0.105-0.707 0.293s-0.293 0.442-0.293 0.707v2c0 0.265 0.105 0.52 0.293 0.707s0.442 0.293 0.707 0.293h2c0.265 0 0.52-0.105 0.707-0.293s0.293-0.442 0.293-0.707zM15 9v-2c0-0.265-0.105-0.52-0.293-0.707s-0.442-0.293-0.707-0.293h-2c-0.265 0-0.52 0.105-0.707 0.293s-0.293 0.442-0.293 0.707v2c0 0.265 0.105 0.52 0.293 0.707s0.442 0.293 0.707 0.293h2c0.265 0 0.52-0.105 0.707-0.293s0.293-0.442 0.293-0.707zM15 4v-2c0-0.265-0.105-0.52-0.293-0.707s-0.442-0.293-0.707-0.293h-2c-0.265 0-0.52 0.105-0.707 0.293s-0.293 0.442-0.293 0.707v2c0 0.265 0.105 0.52 0.293 0.707s0.442 0.293 0.707 0.293h2c0.265 0 0.52-0.105 0.707-0.293s0.293-0.442 0.293-0.707zM14 2v2h-2v-2h2zM19 2v2h-2v-2h2zM9 7v2h-2v-2h2zM14 7v2h-2v-2h2zM19 7h-2v2h2v-2zM9 12v2h-2v-2h2zM14 12v2h-2v-2h2zM19 12v2h-2v-2h2zM17 1c-0.265 0-0.52 0.105-0.707 0.293s-0.293 0.442-0.293 0.707v2c0 0.265 0.105 0.52 0.293 0.707s0.442 0.293 0.707 0.293h2c0.265 0 0.52-0.105 0.707-0.293s0.293-0.442 0.293-0.707v-2c0-0.265-0.105-0.52-0.293-0.707s-0.442-0.293-0.707-0.293h-2zM16 7c0-0.265 0.105-0.52 0.293-0.707s0.442-0.293 0.707-0.293h2c0.265 0 0.52 0.105 0.707 0.293s0.293 0.442 0.293 0.707v2c0 0.265-0.105 0.52-0.293 0.707s-0.442 0.293-0.707 0.293h-2c-0.265 0-0.52-0.105-0.707-0.293s-0.293-0.442-0.293-0.707v-2zM17 11c-0.265 0-0.52 0.105-0.707 0.293s-0.293 0.442-0.293 0.707v2c0 0.265 0.105 0.52 0.293 0.707s0.442 0.293 0.707 0.293h2c0.265 0 0.52-0.105 0.707-0.293s0.293-0.442 0.293-0.707v-2c0-0.265-0.105-0.52-0.293-0.707s-0.442-0.293-0.707-0.293h-2z"></path>
            <path d="M1.289 29h-0.932l2.094-5.818h1.014l2.094 5.818h-0.932l-1.645-4.761h-0.045l-1.648 4.761zM1.446 26.722h3.023v0.739h-3.023v-0.739zM7.141 23.182v5.818h-0.849v-5.818h0.849zM10.081 29.088c-0.422 0-0.786-0.096-1.091-0.287-0.303-0.193-0.536-0.459-0.699-0.798s-0.244-0.727-0.244-1.165c0-0.443 0.083-0.834 0.25-1.173 0.167-0.341 0.402-0.607 0.705-0.798s0.66-0.287 1.071-0.287c0.331 0 0.627 0.062 0.886 0.185 0.259 0.121 0.469 0.292 0.628 0.511 0.161 0.22 0.257 0.476 0.287 0.77h-0.827c-0.045-0.205-0.15-0.381-0.313-0.528-0.161-0.148-0.377-0.222-0.648-0.222-0.237 0-0.444 0.063-0.622 0.188-0.176 0.123-0.313 0.299-0.412 0.528-0.098 0.227-0.148 0.496-0.148 0.807 0 0.318 0.048 0.593 0.145 0.824s0.233 0.41 0.409 0.537c0.178 0.127 0.387 0.19 0.628 0.19 0.161 0 0.307-0.029 0.438-0.088 0.133-0.061 0.243-0.147 0.332-0.259 0.091-0.112 0.154-0.246 0.19-0.403h0.827c-0.030 0.282-0.122 0.534-0.276 0.756s-0.359 0.396-0.617 0.523c-0.256 0.127-0.556 0.19-0.901 0.19zM14.581 29.088c-0.409 0-0.766-0.094-1.071-0.281s-0.542-0.45-0.71-0.787c-0.169-0.337-0.253-0.731-0.253-1.182 0-0.453 0.084-0.848 0.253-1.188s0.405-0.602 0.71-0.79c0.305-0.188 0.662-0.281 1.071-0.281s0.766 0.094 1.071 0.281c0.305 0.188 0.542 0.451 0.71 0.79s0.253 0.735 0.253 1.188c0 0.451-0.084 0.845-0.253 1.182s-0.405 0.599-0.71 0.787c-0.305 0.188-0.662 0.281-1.071 0.281zM14.583 28.375c0.265 0 0.485-0.070 0.659-0.21s0.303-0.327 0.386-0.56c0.085-0.233 0.128-0.49 0.128-0.77 0-0.278-0.043-0.534-0.128-0.767-0.083-0.235-0.212-0.423-0.386-0.565s-0.394-0.213-0.659-0.213c-0.267 0-0.489 0.071-0.665 0.213-0.174 0.142-0.304 0.331-0.389 0.565-0.083 0.233-0.125 0.489-0.125 0.767 0 0.28 0.042 0.537 0.125 0.77 0.085 0.233 0.215 0.419 0.389 0.56 0.176 0.14 0.398 0.21 0.665 0.21zM21.107 24.636l-1.582 4.364h-0.909l-1.585-4.364h0.912l1.105 3.358h0.045l1.102-3.358h0.912zM23.598 29.088c-0.43 0-0.8-0.092-1.111-0.276-0.309-0.186-0.547-0.446-0.716-0.781-0.167-0.337-0.25-0.732-0.25-1.185 0-0.447 0.083-0.841 0.25-1.182 0.169-0.341 0.403-0.607 0.705-0.798 0.303-0.191 0.657-0.287 1.063-0.287 0.246 0 0.485 0.041 0.716 0.122s0.438 0.209 0.622 0.384c0.184 0.174 0.329 0.401 0.435 0.679 0.106 0.276 0.159 0.613 0.159 1.009v0.301h-3.469v-0.636h2.636c0-0.224-0.045-0.421-0.136-0.594-0.091-0.174-0.219-0.312-0.384-0.412-0.163-0.1-0.354-0.151-0.574-0.151-0.239 0-0.447 0.059-0.625 0.176-0.176 0.116-0.313 0.267-0.409 0.455-0.095 0.186-0.142 0.387-0.142 0.605v0.497c0 0.292 0.051 0.54 0.153 0.744 0.104 0.205 0.249 0.361 0.435 0.469 0.186 0.106 0.402 0.159 0.651 0.159 0.161 0 0.308-0.023 0.44-0.068 0.133-0.047 0.247-0.117 0.344-0.21s0.17-0.207 0.222-0.344l0.804 0.145c-0.064 0.237-0.18 0.444-0.347 0.622-0.165 0.176-0.372 0.313-0.622 0.412-0.248 0.097-0.531 0.145-0.849 0.145z"></path>
        </symbol>

        <symbol id="icon-automatic" viewBox="0 0 39 32">
            <path d="M17.5 3.5c0-0.398 0.158-0.779 0.439-1.061s0.663-0.439 1.061-0.439h1c0.398 0 0.779 0.158 1.061 0.439s0.439 0.663 0.439 1.061v1c0 0.398-0.158 0.779-0.439 1.061s-0.663 0.439-1.061 0.439v1h5.5c0.133 0 0.26 0.053 0.354 0.146s0.146 0.221 0.146 0.354v1c0 0.133-0.053 0.26-0.146 0.354s-0.221 0.146-0.354 0.146c-0.133 0-0.26-0.053-0.354-0.146s-0.146-0.221-0.146-0.354v-0.5h-5v0.5c0 0.133-0.053 0.26-0.146 0.354s-0.221 0.146-0.354 0.146c-0.133 0-0.26-0.053-0.354-0.146s-0.146-0.221-0.146-0.354v-0.5h-5v0.5c0 0.133-0.053 0.26-0.146 0.354s-0.221 0.146-0.354 0.146c-0.133 0-0.26-0.053-0.354-0.146s-0.146-0.221-0.146-0.354v-1c0-0.133 0.053-0.26 0.146-0.354s0.221-0.146 0.354-0.146h5.5v-1c-0.398 0-0.779-0.158-1.061-0.439s-0.439-0.663-0.439-1.061v-1zM20 5c0.133 0 0.26-0.053 0.354-0.146s0.146-0.221 0.146-0.354v-1c0-0.133-0.053-0.26-0.146-0.354s-0.221-0.146-0.354-0.146h-1c-0.133 0-0.26 0.053-0.354 0.146s-0.146 0.221-0.146 0.354v1c0 0.133 0.053 0.26 0.146 0.354s0.221 0.146 0.354 0.146h1zM11.5 11.5c0-0.398 0.158-0.779 0.439-1.061s0.663-0.439 1.061-0.439h1c0.398 0 0.779 0.158 1.061 0.439s0.439 0.663 0.439 1.061v1c0 0.398-0.158 0.779-0.439 1.061s-0.663 0.439-1.061 0.439h-1c-0.398 0-0.779-0.158-1.061-0.439s-0.439-0.663-0.439-1.061v-1zM13 11c-0.133 0-0.26 0.053-0.354 0.146s-0.146 0.221-0.146 0.354v1c0 0.133 0.053 0.26 0.146 0.354s0.221 0.146 0.354 0.146h1c0.133 0 0.26-0.053 0.354-0.146s0.146-0.221 0.146-0.354v-1c0-0.133-0.053-0.26-0.146-0.354s-0.221-0.146-0.354-0.146h-1zM17.5 11.5c0-0.398 0.158-0.779 0.439-1.061s0.663-0.439 1.061-0.439h1c0.398 0 0.779 0.158 1.061 0.439s0.439 0.663 0.439 1.061v1c0 0.398-0.158 0.779-0.439 1.061s-0.663 0.439-1.061 0.439h-1c-0.398 0-0.779-0.158-1.061-0.439s-0.439-0.663-0.439-1.061v-1zM19 11c-0.133 0-0.26 0.053-0.354 0.146s-0.146 0.221-0.146 0.354v1c0 0.133 0.053 0.26 0.146 0.354s0.221 0.146 0.354 0.146h1c0.133 0 0.26-0.053 0.354-0.146s0.146-0.221 0.146-0.354v-1c0-0.133-0.053-0.26-0.146-0.354s-0.221-0.146-0.354-0.146h-1zM23.5 11.5c0-0.398 0.158-0.779 0.439-1.061s0.663-0.439 1.061-0.439h1c0.398 0 0.779 0.158 1.061 0.439s0.439 0.663 0.439 1.061v1c0 0.398-0.158 0.779-0.439 1.061s-0.663 0.439-1.061 0.439h-1c-0.398 0-0.779-0.158-1.061-0.439s-0.439-0.663-0.439-1.061v-1zM25 11c-0.133 0-0.26 0.053-0.354 0.146s-0.146 0.221-0.146 0.354v1c0 0.133 0.053 0.26 0.146 0.354s0.221 0.146 0.354 0.146h1c0.133 0 0.26-0.053 0.354-0.146s0.146-0.221 0.146-0.354v-1c0-0.133-0.053-0.26-0.146-0.354s-0.221-0.146-0.354-0.146h-1z"></path>
            <path d="M1.17 29h-0.932l2.094-5.818h1.014l2.094 5.818h-0.932l-1.645-4.761h-0.045l-1.648 4.761zM1.326 26.722h3.023v0.739h-3.023v-0.739zM8.936 27.19v-2.554h0.852v4.364h-0.835v-0.756h-0.045c-0.1 0.233-0.261 0.427-0.483 0.582-0.22 0.153-0.493 0.23-0.821 0.23-0.28 0-0.528-0.062-0.744-0.185-0.214-0.125-0.383-0.31-0.506-0.554-0.121-0.244-0.182-0.546-0.182-0.906v-2.776h0.849v2.673c0 0.297 0.082 0.534 0.247 0.71s0.379 0.264 0.642 0.264c0.159 0 0.317-0.040 0.474-0.119 0.159-0.079 0.291-0.2 0.395-0.361 0.106-0.161 0.158-0.366 0.156-0.614zM12.926 24.636v0.682h-2.384v-0.682h2.384zM11.182 23.591h0.849v4.128c0 0.165 0.025 0.289 0.074 0.372 0.049 0.081 0.113 0.137 0.19 0.168 0.080 0.028 0.166 0.043 0.259 0.043 0.068 0 0.128-0.005 0.179-0.014s0.091-0.017 0.119-0.023l0.153 0.702c-0.049 0.019-0.119 0.038-0.21 0.057-0.091 0.021-0.205 0.032-0.341 0.034-0.223 0.004-0.432-0.036-0.625-0.119s-0.349-0.212-0.469-0.386c-0.119-0.174-0.179-0.393-0.179-0.656v-4.304zM15.617 29.088c-0.409 0-0.766-0.094-1.071-0.281s-0.542-0.45-0.71-0.787c-0.169-0.337-0.253-0.731-0.253-1.182 0-0.453 0.084-0.848 0.253-1.188s0.405-0.602 0.71-0.79c0.305-0.188 0.662-0.281 1.071-0.281s0.766 0.094 1.071 0.281c0.305 0.188 0.542 0.451 0.71 0.79s0.253 0.735 0.253 1.188c0 0.451-0.084 0.845-0.253 1.182s-0.405 0.599-0.71 0.787c-0.305 0.188-0.662 0.281-1.071 0.281zM15.62 28.375c0.265 0 0.485-0.070 0.659-0.21s0.303-0.327 0.386-0.56c0.085-0.233 0.128-0.49 0.128-0.77 0-0.278-0.043-0.534-0.128-0.767-0.083-0.235-0.212-0.423-0.386-0.565s-0.394-0.213-0.659-0.213c-0.267 0-0.489 0.071-0.665 0.213-0.174 0.142-0.304 0.331-0.389 0.565-0.083 0.233-0.125 0.489-0.125 0.767 0 0.28 0.042 0.537 0.125 0.77 0.085 0.233 0.215 0.419 0.389 0.56 0.176 0.14 0.398 0.21 0.665 0.21zM18.559 29v-4.364h0.815v0.71h0.054c0.091-0.241 0.24-0.428 0.446-0.563 0.206-0.136 0.454-0.205 0.741-0.205 0.292 0 0.536 0.068 0.733 0.205 0.199 0.136 0.346 0.324 0.44 0.563h0.045c0.104-0.233 0.27-0.419 0.497-0.557 0.227-0.14 0.498-0.21 0.813-0.21 0.396 0 0.719 0.124 0.969 0.372 0.252 0.248 0.378 0.622 0.378 1.122v2.926h-0.849v-2.847c0-0.295-0.081-0.509-0.241-0.642s-0.353-0.199-0.577-0.199c-0.276 0-0.491 0.085-0.645 0.256-0.153 0.169-0.23 0.385-0.23 0.651v2.781h-0.847v-2.901c0-0.237-0.074-0.427-0.222-0.571s-0.34-0.216-0.577-0.216c-0.161 0-0.31 0.043-0.446 0.128-0.134 0.083-0.243 0.2-0.327 0.349-0.081 0.15-0.122 0.323-0.122 0.52v2.69h-0.849zM26.86 29.097c-0.276 0-0.526-0.051-0.75-0.153-0.224-0.104-0.401-0.255-0.531-0.452-0.129-0.197-0.193-0.438-0.193-0.724 0-0.246 0.047-0.449 0.142-0.608s0.223-0.285 0.384-0.378c0.161-0.093 0.341-0.163 0.54-0.21s0.402-0.083 0.608-0.108c0.261-0.030 0.474-0.055 0.636-0.074 0.163-0.021 0.281-0.054 0.355-0.099s0.111-0.119 0.111-0.222v-0.020c0-0.248-0.070-0.44-0.21-0.577-0.138-0.136-0.345-0.205-0.619-0.205-0.286 0-0.511 0.063-0.676 0.19-0.163 0.125-0.276 0.264-0.338 0.418l-0.798-0.182c0.095-0.265 0.233-0.479 0.415-0.642 0.184-0.165 0.395-0.284 0.634-0.358 0.239-0.076 0.49-0.114 0.753-0.114 0.174 0 0.359 0.021 0.554 0.063 0.197 0.040 0.381 0.114 0.551 0.222 0.172 0.108 0.313 0.262 0.423 0.463 0.11 0.199 0.165 0.457 0.165 0.776v2.898h-0.83v-0.597h-0.034c-0.055 0.11-0.137 0.218-0.247 0.324s-0.251 0.194-0.423 0.264c-0.172 0.070-0.379 0.105-0.619 0.105zM27.044 28.415c0.235 0 0.436-0.046 0.602-0.139 0.169-0.093 0.296-0.214 0.384-0.364 0.089-0.152 0.134-0.313 0.134-0.486v-0.563c-0.030 0.030-0.089 0.059-0.176 0.085-0.085 0.025-0.183 0.046-0.293 0.065-0.11 0.017-0.217 0.033-0.321 0.048-0.104 0.013-0.191 0.025-0.261 0.034-0.165 0.021-0.315 0.056-0.452 0.105-0.134 0.049-0.242 0.12-0.324 0.213-0.079 0.091-0.119 0.212-0.119 0.364 0 0.21 0.078 0.369 0.233 0.477 0.155 0.106 0.353 0.159 0.594 0.159zM32.141 24.636v0.682h-2.384v-0.682h2.384zM30.397 23.591h0.849v4.128c0 0.165 0.025 0.289 0.074 0.372 0.049 0.081 0.113 0.137 0.19 0.168 0.080 0.028 0.166 0.043 0.259 0.043 0.068 0 0.128-0.005 0.179-0.014s0.091-0.017 0.119-0.023l0.153 0.702c-0.049 0.019-0.119 0.038-0.21 0.057-0.091 0.021-0.205 0.032-0.341 0.034-0.224 0.004-0.432-0.036-0.625-0.119s-0.349-0.212-0.469-0.386c-0.119-0.174-0.179-0.393-0.179-0.656v-4.304zM33.041 29v-4.364h0.849v4.364h-0.849zM33.47 23.963c-0.148 0-0.275-0.049-0.381-0.148-0.104-0.1-0.156-0.22-0.156-0.358 0-0.14 0.052-0.259 0.156-0.358 0.106-0.1 0.233-0.151 0.381-0.151s0.274 0.050 0.378 0.151c0.106 0.098 0.159 0.218 0.159 0.358 0 0.138-0.053 0.258-0.159 0.358-0.104 0.099-0.23 0.148-0.378 0.148zM36.831 29.088c-0.422 0-0.786-0.096-1.091-0.287-0.303-0.193-0.536-0.459-0.699-0.798s-0.244-0.727-0.244-1.165c0-0.443 0.083-0.834 0.25-1.173 0.167-0.341 0.401-0.607 0.705-0.798s0.66-0.287 1.071-0.287c0.331 0 0.627 0.062 0.886 0.185 0.26 0.121 0.469 0.292 0.628 0.511 0.161 0.22 0.257 0.476 0.287 0.77h-0.827c-0.045-0.205-0.15-0.381-0.313-0.528-0.161-0.148-0.377-0.222-0.648-0.222-0.237 0-0.444 0.063-0.622 0.188-0.176 0.123-0.313 0.299-0.412 0.528-0.098 0.227-0.148 0.496-0.148 0.807 0 0.318 0.048 0.593 0.145 0.824s0.233 0.41 0.409 0.537c0.178 0.127 0.387 0.19 0.628 0.19 0.161 0 0.307-0.029 0.438-0.088 0.133-0.061 0.243-0.147 0.332-0.259 0.091-0.112 0.154-0.246 0.19-0.403h0.827c-0.030 0.282-0.122 0.534-0.276 0.756s-0.359 0.396-0.616 0.523c-0.256 0.127-0.556 0.19-0.901 0.19z"></path>
        </symbol>

        <symbol id="icon-heart" viewBox="0 0 32 32">
            <path d="M16 13.139l-1.788-3.578c-0.444-0.886-1.214-2.16-2.304-3.19-1.072-1.014-2.356-1.704-3.908-1.704-3.352 0-6 2.652-6 5.84 0 2.422 1.108 4.132 3.736 6.74 0.674 0.668 1.442 1.39 2.292 2.186 2.216 2.080 4.972 4.668 7.972 8.128 3-3.46 5.756-6.048 7.972-8.128 0.85-0.796 1.62-1.52 2.292-2.186 2.628-2.608 3.736-4.318 3.736-6.74 0-3.188-2.648-5.84-6-5.84-1.554 0-2.836 0.69-3.908 1.704-1.090 1.030-1.86 2.304-2.304 3.19l-1.788 3.578zM16.784 29.723c-0.096 0.114-0.216 0.206-0.352 0.269s-0.283 0.095-0.432 0.095-0.297-0.033-0.432-0.095c-0.135-0.063-0.255-0.155-0.352-0.269-3.202-3.804-6.1-6.524-8.486-8.762-4.13-3.878-6.73-6.316-6.73-10.454 0-4.33 3.58-7.84 8-7.84 3.2 0 5.438 2.1 6.808 4.016 0.52 0.73 0.916 1.432 1.192 1.984 0.346-0.691 0.745-1.354 1.192-1.984 1.37-1.918 3.608-4.016 6.808-4.016 4.42 0 8 3.51 8 7.84 0 4.138-2.6 6.576-6.73 10.454-2.386 2.24-5.284 4.962-8.486 8.762z"></path>
        </symbol>

        <symbol id="icon-kitchen" viewBox="0 0 30 32">
            <path d="M7.25 6c-0.075 0-0.149 0.017-0.216 0.049s-0.127 0.080-0.174 0.138c-0.047 0.058-0.080 0.126-0.097 0.199s-0.017 0.149-0.001 0.222l1.652 7.434c0.123 0.555 0.432 1.052 0.876 1.408s0.995 0.55 1.564 0.55h5.792c0.569-0 1.12-0.194 1.564-0.55s0.753-0.853 0.876-1.408l0.131-0.59c0.765 0.143 1.555-0.017 2.205-0.446s1.107-1.093 1.275-1.853c0.169-0.76 0.036-1.555-0.371-2.219s-1.055-1.143-1.809-1.337l0.221-0.99c0.016-0.073 0.016-0.149-0.001-0.222s-0.050-0.141-0.097-0.199c-0.047-0.058-0.106-0.105-0.174-0.138s-0.141-0.049-0.216-0.049h-13zM19.75 12.5c-0.106 0-0.212-0.008-0.316-0.025l0.867-3.898c0.462 0.134 0.861 0.43 1.123 0.834s0.369 0.889 0.302 1.366c-0.067 0.477-0.304 0.914-0.667 1.23s-0.828 0.491-1.309 0.493zM9.39 13.825l-1.517-6.825h11.754l-1.517 6.825c-0.074 0.333-0.259 0.631-0.526 0.845s-0.597 0.33-0.939 0.33h-5.792c-0.341-0-0.672-0.117-0.939-0.33s-0.451-0.512-0.525-0.845z"></path>
            <path d="M11.15 0.8l-0.003 0.004-0.014 0.019c-0.073 0.1-0.141 0.204-0.204 0.31-0.054 0.085-0.101 0.175-0.141 0.267-0.026 0.060-0.034 0.092-0.037 0.103v0.004c0.012 0.088 0.043 0.173 0.091 0.248 0.075 0.133 0.178 0.272 0.308 0.445l0.010 0.012c0.118 0.158 0.26 0.347 0.37 0.543 0.112 0.2 0.22 0.455 0.22 0.745 0 0.188-0.065 0.368-0.119 0.494-0.058 0.134-0.125 0.264-0.202 0.388-0.078 0.131-0.163 0.259-0.253 0.382l-0.018 0.025-0.005 0.008-0.002 0.002c-0.079 0.106-0.198 0.177-0.329 0.195s-0.265-0.015-0.371-0.094-0.177-0.198-0.195-0.329c-0.019-0.131 0.015-0.265 0.094-0.371l0.003-0.004 0.014-0.019c0.073-0.1 0.141-0.204 0.204-0.31 0.054-0.085 0.101-0.175 0.141-0.267 0.026-0.060 0.034-0.092 0.037-0.103-0.011-0.090-0.041-0.176-0.090-0.252-0.093-0.155-0.196-0.304-0.309-0.445l-0.010-0.012c-0.135-0.173-0.259-0.354-0.37-0.543-0.136-0.225-0.212-0.482-0.22-0.745 0-0.188 0.065-0.368 0.119-0.494 0.059-0.138 0.134-0.274 0.202-0.388 0.079-0.131 0.164-0.258 0.253-0.382l0.025-0.035c0.079-0.106 0.198-0.177 0.329-0.195s0.265 0.015 0.371 0.094 0.177 0.198 0.195 0.329c0.019 0.131-0.015 0.265-0.094 0.371zM14.15 0.8l-0.003 0.004-0.014 0.019c-0.073 0.1-0.141 0.204-0.204 0.31-0.054 0.085-0.101 0.175-0.141 0.267-0.026 0.060-0.034 0.092-0.037 0.103v0.004c0.012 0.088 0.043 0.173 0.091 0.248 0.075 0.133 0.178 0.272 0.308 0.445l0.010 0.012c0.118 0.158 0.26 0.347 0.37 0.543 0.112 0.2 0.22 0.455 0.22 0.745 0 0.188-0.065 0.368-0.119 0.494-0.058 0.134-0.125 0.264-0.202 0.388-0.078 0.131-0.163 0.259-0.253 0.382l-0.018 0.025-0.005 0.008-0.002 0.002c-0.079 0.106-0.198 0.177-0.329 0.195s-0.265-0.015-0.371-0.094-0.177-0.198-0.195-0.329c-0.019-0.131 0.015-0.265 0.094-0.371l0.003-0.004 0.014-0.019c0.073-0.1 0.141-0.204 0.204-0.31 0.054-0.085 0.101-0.175 0.141-0.267 0.026-0.060 0.034-0.092 0.037-0.103-0.011-0.090-0.041-0.176-0.090-0.252-0.093-0.155-0.196-0.304-0.309-0.445l-0.010-0.012c-0.135-0.173-0.259-0.354-0.37-0.543-0.136-0.225-0.212-0.482-0.22-0.745 0-0.188 0.065-0.368 0.119-0.494 0.059-0.138 0.134-0.274 0.202-0.388 0.079-0.131 0.164-0.258 0.253-0.382l0.025-0.035c0.079-0.106 0.198-0.177 0.329-0.195s0.265 0.015 0.371 0.094 0.177 0.198 0.195 0.329c0.019 0.131-0.015 0.265-0.094 0.371zM17.15 0.8l-0.003 0.004-0.014 0.019c-0.073 0.1-0.141 0.204-0.204 0.31-0.054 0.085-0.101 0.175-0.141 0.267-0.026 0.060-0.034 0.092-0.037 0.103v0.004c0.012 0.088 0.043 0.173 0.091 0.248 0.075 0.133 0.178 0.272 0.308 0.445l0.010 0.012c0.118 0.158 0.26 0.347 0.37 0.543 0.112 0.2 0.22 0.455 0.22 0.745 0 0.188-0.065 0.368-0.119 0.494-0.058 0.134-0.125 0.264-0.202 0.388-0.078 0.131-0.162 0.259-0.252 0.382l-0.019 0.025-0.005 0.008-0.002 0.002c-0.079 0.106-0.198 0.177-0.329 0.195s-0.265-0.015-0.371-0.094-0.177-0.198-0.195-0.329c-0.019-0.131 0.015-0.265 0.094-0.371l0.003-0.004 0.014-0.019c0.073-0.1 0.141-0.204 0.204-0.31 0.054-0.085 0.101-0.175 0.141-0.267 0.026-0.060 0.034-0.092 0.037-0.103-0.011-0.090-0.041-0.176-0.090-0.252-0.093-0.155-0.196-0.304-0.309-0.445l-0.010-0.012c-0.135-0.173-0.259-0.354-0.37-0.543-0.136-0.225-0.212-0.482-0.22-0.745 0-0.188 0.065-0.368 0.119-0.494 0.059-0.138 0.134-0.274 0.202-0.388 0.079-0.131 0.164-0.258 0.253-0.382l0.025-0.035c0.079-0.106 0.198-0.177 0.329-0.195s0.265 0.015 0.371 0.094 0.177 0.198 0.195 0.329c0.019 0.131-0.015 0.265-0.094 0.371z"></path>
            <path d="M0.841 29v-5.818h0.878v2.778h0.071l2.44-2.778h1.105l-2.347 2.619 2.355 3.199h-1.057l-1.881-2.599-0.688 0.79v1.81h-0.878zM6.319 29v-4.364h0.849v4.364h-0.849zM6.748 23.963c-0.148 0-0.275-0.049-0.381-0.148-0.104-0.1-0.156-0.22-0.156-0.358 0-0.14 0.052-0.259 0.156-0.358 0.106-0.1 0.233-0.151 0.381-0.151s0.274 0.050 0.378 0.151c0.106 0.098 0.159 0.218 0.159 0.358 0 0.138-0.053 0.258-0.159 0.358-0.104 0.099-0.23 0.148-0.378 0.148zM10.308 24.636v0.682h-2.383v-0.682h2.383zM8.564 23.591h0.849v4.128c0 0.165 0.025 0.289 0.074 0.372 0.049 0.081 0.113 0.137 0.19 0.168 0.079 0.028 0.166 0.043 0.258 0.043 0.068 0 0.128-0.005 0.179-0.014s0.091-0.017 0.119-0.023l0.153 0.702c-0.049 0.019-0.119 0.038-0.21 0.057-0.091 0.021-0.205 0.032-0.341 0.034-0.223 0.004-0.432-0.036-0.625-0.119s-0.349-0.212-0.469-0.386c-0.119-0.174-0.179-0.393-0.179-0.656v-4.304zM12.999 29.088c-0.422 0-0.786-0.096-1.091-0.287-0.303-0.193-0.536-0.459-0.699-0.798s-0.244-0.727-0.244-1.165c0-0.443 0.083-0.834 0.25-1.173 0.167-0.341 0.402-0.607 0.705-0.798s0.66-0.287 1.071-0.287c0.331 0 0.627 0.062 0.886 0.185 0.259 0.121 0.469 0.292 0.628 0.511 0.161 0.22 0.257 0.476 0.287 0.77h-0.827c-0.045-0.205-0.15-0.381-0.313-0.528-0.161-0.148-0.377-0.222-0.648-0.222-0.237 0-0.444 0.063-0.622 0.188-0.176 0.123-0.313 0.299-0.412 0.528-0.098 0.227-0.148 0.496-0.148 0.807 0 0.318 0.048 0.593 0.145 0.824s0.233 0.41 0.409 0.537c0.178 0.127 0.387 0.19 0.628 0.19 0.161 0 0.307-0.029 0.438-0.088 0.133-0.061 0.243-0.147 0.332-0.259 0.091-0.112 0.154-0.246 0.19-0.403h0.827c-0.030 0.282-0.122 0.534-0.276 0.756s-0.359 0.396-0.617 0.523c-0.256 0.127-0.556 0.19-0.901 0.19zM16.509 26.409v2.591h-0.849v-5.818h0.838v2.165h0.054c0.102-0.235 0.259-0.421 0.469-0.56s0.485-0.207 0.824-0.207c0.299 0 0.561 0.062 0.784 0.185 0.225 0.123 0.4 0.307 0.523 0.551 0.125 0.242 0.188 0.545 0.188 0.909v2.776h-0.849v-2.673c0-0.32-0.082-0.568-0.247-0.744-0.165-0.178-0.394-0.267-0.688-0.267-0.201 0-0.381 0.043-0.54 0.128-0.157 0.085-0.281 0.21-0.372 0.375-0.089 0.163-0.134 0.36-0.134 0.591zM22.313 29.088c-0.43 0-0.8-0.092-1.111-0.276-0.309-0.186-0.547-0.446-0.716-0.781-0.167-0.337-0.25-0.732-0.25-1.185 0-0.447 0.083-0.841 0.25-1.182 0.169-0.341 0.403-0.607 0.705-0.798 0.303-0.191 0.657-0.287 1.063-0.287 0.246 0 0.485 0.041 0.716 0.122s0.438 0.209 0.622 0.384c0.184 0.174 0.329 0.401 0.435 0.679 0.106 0.276 0.159 0.613 0.159 1.009v0.301h-3.469v-0.636h2.636c0-0.224-0.045-0.421-0.136-0.594-0.091-0.174-0.219-0.312-0.384-0.412-0.163-0.1-0.354-0.151-0.574-0.151-0.239 0-0.447 0.059-0.625 0.176-0.176 0.116-0.313 0.267-0.409 0.455-0.095 0.186-0.142 0.387-0.142 0.605v0.497c0 0.292 0.051 0.54 0.153 0.744 0.104 0.205 0.249 0.361 0.435 0.469 0.186 0.106 0.402 0.159 0.651 0.159 0.161 0 0.308-0.023 0.44-0.068 0.133-0.047 0.247-0.117 0.344-0.21s0.171-0.207 0.222-0.344l0.804 0.145c-0.064 0.237-0.18 0.444-0.347 0.622-0.165 0.176-0.372 0.313-0.622 0.412-0.248 0.097-0.531 0.145-0.849 0.145zM25.937 26.409v2.591h-0.849v-4.364h0.815v0.71h0.054c0.1-0.231 0.258-0.417 0.472-0.557 0.216-0.14 0.488-0.21 0.815-0.21 0.297 0 0.558 0.063 0.781 0.188 0.224 0.123 0.397 0.307 0.52 0.551s0.185 0.546 0.185 0.906v2.776h-0.849v-2.673c0-0.316-0.082-0.563-0.247-0.741-0.165-0.18-0.391-0.27-0.679-0.27-0.197 0-0.372 0.043-0.526 0.128-0.151 0.085-0.272 0.21-0.361 0.375-0.087 0.163-0.131 0.36-0.131 0.591z"></path>
        </symbol>

        <symbol id="icon-ac" viewBox="0 0 16 32">
            <path d="M12.5 2c-0.663 0-1.299 0.263-1.768 0.732s-0.732 1.105-0.732 1.768c0 0.133-0.053 0.26-0.146 0.354s-0.221 0.146-0.354 0.146c-0.133 0-0.26-0.053-0.354-0.146s-0.146-0.221-0.146-0.354c0-0.692 0.205-1.369 0.59-1.944s0.931-1.024 1.571-1.289c0.64-0.265 1.343-0.334 2.022-0.199s1.303 0.468 1.792 0.958c0.489 0.49 0.823 1.113 0.958 1.792s0.066 1.383-0.199 2.022c-0.265 0.64-0.714 1.186-1.289 1.571s-1.252 0.59-1.944 0.59h-12c-0.133 0-0.26-0.053-0.354-0.146s-0.146-0.221-0.146-0.354c0-0.133 0.053-0.26 0.146-0.354s0.221-0.146 0.354-0.146h12c0.663 0 1.299-0.263 1.768-0.732s0.732-1.105 0.732-1.768-0.263-1.299-0.732-1.768c-0.469-0.469-1.105-0.732-1.768-0.732zM5.5 3c-0.265 0-0.52 0.105-0.707 0.293s-0.293 0.442-0.293 0.707c0 0.133-0.053 0.26-0.146 0.354s-0.221 0.146-0.354 0.146c-0.133 0-0.26-0.053-0.354-0.146s-0.146-0.221-0.146-0.354c0-0.396 0.117-0.782 0.337-1.111s0.532-0.585 0.898-0.737c0.365-0.151 0.768-0.191 1.156-0.114s0.744 0.268 1.024 0.547 0.47 0.636 0.547 1.024c0.077 0.388 0.038 0.79-0.114 1.156s-0.408 0.678-0.737 0.898-0.716 0.337-1.111 0.337h-5c-0.133 0-0.26-0.053-0.354-0.146s-0.146-0.221-0.146-0.354c0-0.133 0.053-0.26 0.146-0.354s0.221-0.146 0.354-0.146h5c0.265 0 0.52-0.105 0.707-0.293s0.293-0.442 0.293-0.707c0-0.265-0.105-0.52-0.293-0.707s-0.442-0.293-0.707-0.293zM0 9.5c0-0.133 0.053-0.26 0.146-0.354s0.221-0.146 0.354-0.146h10.042c0.593 0 1.173 0.176 1.667 0.506s0.878 0.798 1.105 1.346c0.227 0.548 0.286 1.151 0.171 1.733s-0.401 1.117-0.821 1.536c-0.42 0.42-0.954 0.705-1.536 0.821s-1.185 0.056-1.733-0.171-1.017-0.612-1.346-1.105c-0.33-0.493-0.506-1.073-0.506-1.667 0-0.133 0.053-0.26 0.146-0.354s0.221-0.146 0.354-0.146c0.133 0 0.26 0.053 0.354 0.146s0.146 0.221 0.146 0.354c0 0.396 0.117 0.782 0.337 1.111s0.532 0.585 0.898 0.737c0.365 0.151 0.768 0.191 1.156 0.114s0.744-0.268 1.024-0.547 0.47-0.636 0.547-1.024c0.077-0.388 0.038-0.79-0.114-1.156s-0.408-0.678-0.737-0.898-0.716-0.337-1.111-0.337h-10.042c-0.133 0-0.26-0.053-0.354-0.146s-0.146-0.221-0.146-0.354z"></path>
            <path d="M3.545 29h-0.932l2.094-5.818h1.014l2.094 5.818h-0.932l-1.645-4.761h-0.045l-1.648 4.761zM3.701 26.722h3.023v0.739h-3.023v-0.739zM13.174 25.074h-0.886c-0.034-0.189-0.098-0.356-0.19-0.5s-0.206-0.266-0.341-0.366c-0.134-0.1-0.285-0.176-0.452-0.227-0.165-0.051-0.34-0.077-0.526-0.077-0.335 0-0.635 0.084-0.901 0.253-0.263 0.169-0.472 0.416-0.625 0.741-0.152 0.326-0.227 0.723-0.227 1.193 0 0.474 0.076 0.873 0.227 1.199 0.153 0.326 0.363 0.572 0.628 0.739s0.563 0.25 0.895 0.25c0.184 0 0.358-0.025 0.523-0.074 0.167-0.051 0.317-0.126 0.452-0.224s0.248-0.219 0.341-0.361c0.095-0.144 0.16-0.309 0.196-0.494l0.886 0.003c-0.047 0.286-0.139 0.549-0.276 0.79-0.134 0.239-0.308 0.445-0.52 0.619-0.21 0.172-0.451 0.306-0.722 0.401s-0.566 0.142-0.886 0.142c-0.504 0-0.953-0.119-1.347-0.358-0.394-0.241-0.705-0.584-0.932-1.031-0.225-0.447-0.338-0.98-0.338-1.599 0-0.621 0.114-1.154 0.341-1.599 0.227-0.447 0.538-0.79 0.932-1.028 0.394-0.241 0.842-0.361 1.344-0.361 0.309 0 0.597 0.045 0.864 0.134 0.269 0.087 0.51 0.216 0.724 0.386 0.214 0.169 0.391 0.375 0.531 0.619 0.14 0.242 0.235 0.52 0.284 0.832z"></path>
        </symbol>

        <symbol id="icon-rating" viewBox="0 0 34 32">
            <path d="M16.123 1.788c0.4-0.759 1.487-0.759 1.887 0l4.028 7.635c0.154 0.293 0.436 0.497 0.761 0.553l8.506 1.472c0.845 0.146 1.181 1.179 0.583 1.794l-6.017 6.19c-0.23 0.237-0.338 0.568-0.291 0.895l1.229 8.544c0.122 0.849-0.757 1.488-1.526 1.109l-7.747-3.809c-0.297-0.146-0.645-0.146-0.941 0l-7.747 3.809c-0.77 0.378-1.649-0.26-1.526-1.109l1.229-8.544c0.047-0.327-0.060-0.658-0.291-0.895l-6.016-6.19c-0.598-0.615-0.262-1.648 0.583-1.794l8.506-1.472c0.326-0.056 0.607-0.261 0.762-0.553l4.028-7.635z"></path>
        </symbol>

        <symbol id="icon-location" viewBox="0 0 32 32">
            <path d="M31.634 0.226c0.115 0.094 0.207 0.212 0.27 0.346s0.096 0.28 0.096 0.428v28c-0 0.231-0.080 0.455-0.227 0.634s-0.351 0.301-0.577 0.346l-10 2c-0.129 0.026-0.263 0.026-0.392 0l-9.804-1.96-9.804 1.96c-0.145 0.029-0.295 0.025-0.438-0.010s-0.277-0.103-0.392-0.197c-0.114-0.094-0.207-0.212-0.27-0.345s-0.096-0.28-0.096-0.428v-28c0-0.231 0.080-0.455 0.227-0.634s0.351-0.301 0.577-0.346l10-2c0.129-0.026 0.263-0.026 0.392 0l9.804 1.96 9.804-1.96c0.145-0.029 0.295-0.026 0.438 0.010s0.277 0.103 0.392 0.196zM20 3.82l-8-1.6v25.96l8 1.6v-25.96zM22 29.78l8-1.6v-25.96l-8 1.6v25.96zM10 28.18v-25.96l-8 1.6v25.96l8-1.6z"></path>
        </symbol>
    </defs>
</svg>
